{"glyphs":{"0":{"ha":879,"x_min":null,"x_max":null,"o":"m 619 -8 b 754 113 675 15 726 60 b 803 246 776 156 790 200 b 826 378 815 289 825 333 b 831 714 833 490 838 601 b 813 869 828 765 821 818 b 785 956 808 899 804 932 b 711 1025 764 982 740 1007 b 556 1061 665 1051 608 1061 b 404 1054 506 1061 454 1060 b 213 982 336 1046 265 1024 b 207 978 210 981 208 979 b 119 865 167 953 140 908 b 58 674 89 806 69 740 b 43 349 42 567 39 457 b 68 182 46 293 51 236 b 104 101 76 154 88 125 b 299 -25 150 38 222 -12 b 451 -36 349 -33 401 -36 b 619 -8 508 -36 568 -32 z m 428 296 b 360 485 372 317 360 425 b 379 665 360 544 364 607 b 397 721 383 683 389 703 b 406 728 397 722 404 726 b 557 764 446 771 513 803 b 606 628 593 732 604 676 b 600 468 608 575 607 521 b 564 338 594 424 585 378 b 531 297 556 322 546 306 b 492 288 519 290 506 288 b 428 296 471 285 449 289 z "},"1":{"ha":601,"x_min":null,"x_max":null,"o":"m 481 -8 b 521 29 499 -1 514 13 b 542 158 540 68 543 114 b 535 368 539 228 535 299 b 536 492 535 410 536 450 b 543 722 536 568 536 646 b 550 847 546 764 547 806 b 535 988 554 894 556 946 b 521 1010 531 996 526 1004 b 435 1032 500 1031 464 1031 b 281 1036 383 1035 332 1040 b 208 1014 256 1033 229 1028 b 164 954 188 999 175 976 b 93 815 140 907 118 861 b 31 701 72 778 49 742 b 14 647 22 685 15 667 b 32 597 13 629 19 610 b 122 553 47 579 99 551 b 157 576 136 554 149 565 b 201 640 172 596 186 618 b 192 489 197 589 194 539 b 169 119 186 365 172 243 b 175 46 169 94 169 69 b 199 1 179 29 186 13 b 254 -24 214 -12 235 -19 b 481 -8 328 -39 410 -35 z "},"2":{"ha":919,"x_min":null,"x_max":null,"o":"m 740 -7 b 815 -7 765 -8 790 -10 b 849 11 828 -4 842 1 b 863 63 860 26 861 44 b 832 260 868 117 881 229 b 740 276 807 275 771 275 b 485 265 669 282 556 269 b 499 274 489 268 494 271 b 626 354 540 300 583 328 b 875 811 761 438 903 563 b 215 1007 844 1076 426 1113 b 61 850 147 974 92 914 b 43 774 50 826 44 800 b 43 674 42 740 42 707 b 44 651 43 668 43 660 b 51 583 43 629 44 606 b 72 557 56 574 63 564 b 129 544 88 546 110 546 b 290 547 183 543 238 539 b 357 575 314 551 339 560 b 379 633 372 589 376 613 b 392 774 385 688 369 722 b 511 796 410 818 479 833 b 539 656 543 757 551 701 b 406 469 518 583 468 517 b 186 360 342 419 263 390 b 99 311 156 347 124 332 b 51 197 67 283 54 238 b 56 82 50 160 47 119 b 100 21 63 58 76 33 b 156 3 117 11 136 6 b 354 -12 221 -10 288 -10 b 740 -7 468 -17 626 -6 z "},"3":{"ha":939,"x_min":null,"x_max":null,"o":"m 482 -31 b 526 -29 496 -31 511 -31 b 676 -1 576 -22 629 -19 b 794 79 721 15 760 46 b 872 176 825 108 854 140 b 890 403 904 246 915 332 b 718 581 863 481 793 544 b 844 710 771 611 819 656 b 858 903 872 768 879 842 b 803 993 846 936 828 968 b 679 1071 768 1028 724 1053 b 428 1101 600 1100 511 1104 b 213 1054 354 1099 279 1085 b 151 1010 189 1044 169 1026 b 74 892 117 976 88 936 b 53 778 61 856 50 817 b 68 674 56 742 49 704 b 94 656 74 664 85 658 b 196 653 128 647 163 654 b 288 651 226 650 258 646 b 371 722 340 664 371 672 b 513 828 371 836 465 850 b 513 701 554 810 557 738 b 463 681 499 690 479 686 b 397 646 439 672 414 663 b 372 472 364 610 356 518 b 407 433 379 457 390 442 b 457 428 421 426 440 428 b 532 435 482 429 507 433 b 574 426 546 436 561 433 b 586 351 593 415 589 374 b 365 317 574 264 392 236 b 324 418 353 354 369 408 b 232 418 304 424 254 417 b 107 419 210 421 129 428 b 39 268 54 397 36 324 b 56 185 40 240 47 213 b 101 90 67 151 81 118 b 225 -3 131 49 176 17 b 482 -31 304 -36 396 -33 z "},"4":{"ha":1061,"x_min":null,"x_max":null,"o":"m 793 -25 b 828 4 807 -19 821 -8 b 840 100 842 33 840 68 b 856 246 840 150 846 199 b 944 251 885 244 915 246 b 999 274 963 256 983 261 b 1015 304 1007 282 1013 292 b 1025 379 1021 328 1022 354 b 1035 532 1029 431 1036 481 b 1026 590 1033 551 1033 572 b 994 626 1022 606 1010 621 b 919 629 971 633 944 631 b 881 628 908 629 894 629 b 881 650 881 636 881 644 b 915 922 888 742 906 832 b 913 990 918 944 919 968 b 881 1022 908 1004 894 1017 b 764 1029 844 1038 803 1035 b 706 999 742 1025 718 1017 b 692 954 697 985 693 969 b 685 897 689 935 686 917 b 658 607 676 800 667 704 b 657 589 658 603 657 596 b 639 589 651 589 644 589 b 540 575 606 585 572 581 b 501 575 528 576 514 575 b 396 561 467 572 432 563 b 396 567 394 561 396 565 b 438 754 403 631 422 692 b 482 956 454 821 472 888 b 474 1019 485 976 485 1000 b 432 1051 465 1035 449 1046 b 356 1067 407 1060 381 1064 b 151 1061 315 1071 188 1082 b 93 889 114 1040 101 932 b 53 626 76 801 57 715 b 47 542 50 599 49 571 b 46 536 47 540 46 539 b 42 340 38 472 35 406 b 60 279 43 319 49 297 b 104 240 71 263 86 250 b 192 218 131 225 163 221 b 285 218 222 215 254 217 b 499 225 356 222 428 224 b 513 228 504 225 508 226 b 619 232 547 228 583 232 b 613 179 617 211 614 186 b 603 46 607 135 603 90 b 611 -1 603 31 604 14 b 636 -25 615 -11 625 -19 b 793 -25 667 -39 760 -36 z "},"5":{"ha":851,"x_min":null,"x_max":null,"o":"m 304 -37 b 368 -33 326 -37 347 -35 b 597 22 446 -25 525 -10 b 799 264 697 67 775 158 b 808 392 808 306 815 350 b 722 554 797 451 767 511 b 613 611 692 582 653 600 b 488 621 572 622 529 624 b 307 599 426 618 367 607 b 279 600 300 599 283 596 b 269 628 271 607 271 618 b 281 693 268 650 271 672 b 300 708 283 700 292 707 b 353 707 317 708 335 708 b 676 682 460 700 568 685 b 738 693 697 682 719 682 b 790 836 768 710 782 803 b 810 928 799 867 807 897 b 788 1010 813 956 808 990 b 738 1033 774 1022 756 1029 b 599 1042 692 1040 646 1039 b 418 1043 539 1043 478 1047 b 336 1038 390 1042 364 1039 b 229 1029 300 1036 264 1036 b 175 1004 210 1026 189 1018 b 138 951 158 989 147 971 b 69 657 94 860 75 757 b 69 654 69 657 69 654 b 64 504 63 604 56 554 b 85 447 67 485 71 463 b 167 415 104 425 138 418 b 296 415 210 413 253 414 b 414 404 335 417 376 417 b 439 390 424 401 432 396 b 436 361 447 382 444 369 b 242 333 404 331 286 332 b 126 340 203 335 165 339 b 79 322 110 340 90 335 b 60 281 68 311 64 296 b 49 201 53 256 51 228 b 42 46 44 150 40 97 b 54 7 43 32 46 18 b 304 -37 93 -44 240 -40 z "},"6":{"ha":929,"x_min":null,"x_max":null,"o":"m 554 -25 b 690 -6 600 -21 646 -18 b 771 32 718 3 747 14 b 874 181 819 68 854 124 b 889 396 897 249 897 325 b 860 514 885 436 879 478 b 757 608 839 556 800 592 b 638 631 719 624 678 628 b 438 622 571 636 504 632 b 389 624 422 621 406 622 b 383 625 388 624 383 624 b 392 713 375 646 379 694 b 478 732 404 732 454 732 b 610 719 522 731 567 726 b 789 732 660 713 761 690 b 801 760 794 740 799 750 b 819 860 811 792 814 826 b 829 950 824 889 829 919 b 821 994 829 965 828 981 b 789 1026 815 1008 803 1021 b 722 1039 768 1036 744 1038 b 617 1051 688 1043 651 1049 b 451 1046 561 1056 506 1054 b 432 1046 444 1044 438 1046 b 303 1017 388 1042 343 1033 b 161 910 249 993 197 957 b 51 657 104 839 71 747 b 39 461 38 593 36 526 b 72 233 42 385 51 307 b 142 88 88 182 108 131 b 306 -21 182 36 242 -4 b 554 -25 386 -42 472 -35 z m 442 226 b 390 294 404 238 392 265 b 414 435 385 360 379 407 b 451 449 425 444 439 447 b 514 453 472 453 493 453 b 578 431 538 453 564 447 b 589 268 610 392 607 314 b 569 242 585 258 578 249 b 442 226 540 221 475 217 z "},"7":{"ha":769,"x_min":null,"x_max":null,"o":"m 247 -19 b 344 188 314 -12 324 122 b 701 893 425 438 564 668 b 756 1007 715 915 761 981 b 629 1047 749 1050 674 1047 b 90 1047 464 1053 268 1047 b 29 999 54 1047 33 1036 b 57 747 22 932 1 786 b 393 738 101 717 313 753 b 122 176 282 563 200 369 b 100 0 101 125 56 35 b 247 -19 125 -21 214 -22 z "},"8":{"ha":956,"x_min":null,"x_max":null,"o":"m 667 -10 b 786 558 929 43 1008 422 b 758 1049 954 681 939 954 b 239 1029 644 1107 354 1085 b 182 558 46 935 -10 658 b 101 88 33 486 -10 235 b 667 -10 199 -43 507 -42 z m 383 729 b 538 836 328 803 447 858 b 581 725 594 822 631 756 b 383 729 521 689 425 674 z m 389 338 b 547 517 272 365 290 540 b 389 338 718 501 642 276 z "},"9":{"ha":929,"x_min":null,"x_max":null,"o":"m 478 -26 b 497 -26 483 -25 490 -26 b 625 3 540 -22 585 -14 b 768 110 681 26 731 63 b 876 363 824 181 858 272 b 890 558 890 426 893 493 b 857 786 888 635 878 713 b 788 932 842 838 821 889 b 624 1040 747 983 686 1024 b 375 1044 543 1061 457 1054 b 239 1025 329 1040 283 1038 b 157 988 210 1017 181 1006 b 56 839 110 951 75 896 b 40 624 32 771 32 694 b 68 506 44 583 50 542 b 172 411 90 464 129 428 b 290 389 210 396 250 392 b 490 397 357 383 425 388 b 539 396 507 399 524 397 b 546 394 542 396 544 396 b 538 307 553 374 549 325 b 451 288 525 288 474 288 b 318 300 407 289 363 293 b 139 288 269 307 168 329 b 126 260 133 279 129 269 b 110 160 118 228 114 193 b 100 69 104 131 100 100 b 107 25 100 54 101 39 b 140 -7 114 11 126 -1 b 206 -19 161 -17 183 -18 b 313 -32 242 -24 276 -29 b 478 -26 367 -36 424 -35 z m 414 567 b 350 589 392 567 365 572 b 340 751 319 628 322 706 b 360 778 344 761 351 771 b 488 793 388 799 454 803 b 539 725 525 782 536 754 b 514 585 544 660 549 613 b 476 571 504 575 490 572 b 414 567 456 567 435 567 z "},"\u0000":{"ha":0,"x_min":null,"x_max":null,"o":""},"\r":{"ha":347,"x_min":null,"x_max":null,"o":""}," ":{"ha":347,"x_min":null,"x_max":null,"o":""},"!":{"ha":463,"x_min":null,"x_max":null,"o":"m 242 342 b 338 358 265 342 322 340 b 344 397 342 365 344 389 b 378 726 349 507 365 617 b 404 926 386 793 393 860 b 415 997 406 938 417 986 b 385 1025 414 1010 399 1022 b 336 1029 369 1028 353 1028 b 117 1036 264 1035 189 1046 b 83 1022 106 1035 92 1032 b 71 975 72 1010 71 992 b 79 867 74 939 75 903 b 79 864 79 865 79 865 b 86 594 81 774 83 685 b 100 394 89 528 90 461 b 118 357 101 381 107 365 b 157 344 129 349 144 346 b 242 342 186 342 214 342 z m 411 61 b 250 282 463 169 369 281 b 99 -3 85 283 -43 81 b 411 61 210 -68 357 -56 z "},"\"":{"ha":647,"x_min":null,"x_max":null,"o":"m 219 688 b 249 726 228 692 244 718 b 301 951 279 797 299 875 b 275 1040 303 979 300 1029 b 246 1046 267 1044 256 1044 b 151 1040 214 1049 182 1043 b 61 1033 121 1039 90 1040 b 32 1007 49 1029 36 1019 b 38 946 25 988 36 967 b 49 799 42 897 43 847 b 67 715 51 771 53 740 b 97 689 72 703 85 693 b 185 679 125 681 156 682 b 219 688 196 679 210 681 z m 538 685 b 565 725 544 690 563 715 b 619 950 596 796 615 872 b 593 1038 619 976 617 1026 b 563 1043 583 1042 572 1043 b 468 1039 531 1046 500 1042 b 379 1031 438 1038 407 1039 b 349 1006 367 1028 353 1018 b 354 944 342 986 353 965 b 365 797 358 896 360 846 b 383 714 369 769 369 739 b 414 686 389 701 401 690 b 501 678 443 678 472 679 b 538 685 514 678 526 678 z "},"#":{"ha":1218,"x_min":null,"x_max":null,"o":"m 351 15 b 440 32 382 17 414 19 b 472 64 454 39 467 50 b 482 142 482 88 481 115 b 490 249 485 176 488 213 b 615 251 532 250 574 250 b 607 128 610 211 607 169 b 615 51 606 113 607 64 b 671 24 626 33 650 28 b 803 17 714 14 760 14 b 892 32 833 17 865 19 b 924 64 906 39 918 50 b 933 142 933 89 932 115 b 943 257 936 181 939 218 b 946 257 944 257 944 257 b 1076 254 990 256 1033 253 b 1151 274 1104 256 1136 260 b 1167 303 1160 282 1164 292 b 1161 457 1176 332 1182 429 b 1029 472 1144 479 1069 474 b 971 471 1010 471 990 471 b 989 565 978 503 983 535 b 1088 565 1022 565 1056 564 b 1161 583 1114 565 1147 569 b 1178 613 1171 592 1175 603 b 1172 767 1188 643 1193 739 b 1040 782 1156 789 1081 783 b 1031 782 1038 782 1035 782 b 1042 822 1035 796 1038 808 b 1061 924 1050 856 1058 889 b 1044 985 1063 944 1058 969 b 981 1013 1029 1003 1003 1010 b 782 1013 914 1021 847 1024 b 742 997 768 1010 753 1007 b 707 904 726 985 711 924 b 701 875 701 896 703 885 b 683 778 694 843 689 811 b 579 778 663 778 625 778 b 590 822 582 793 586 807 b 610 922 599 854 607 889 b 593 985 611 944 607 968 b 529 1013 578 1001 551 1008 b 331 1013 464 1021 396 1024 b 290 997 317 1010 301 1006 b 256 903 275 983 260 922 b 250 874 250 894 251 883 b 232 776 243 842 238 808 b 100 772 168 775 118 774 b 46 735 67 769 47 756 b 47 607 44 696 39 646 b 61 579 49 597 53 588 b 89 564 67 572 78 567 b 139 557 104 560 122 558 b 199 556 154 556 175 556 b 188 465 194 525 190 494 b 89 463 140 464 104 463 b 36 425 56 458 36 446 b 36 297 33 385 28 336 b 50 269 38 288 42 278 b 78 253 56 263 67 257 b 128 247 93 249 111 247 b 163 246 138 246 150 246 b 156 128 158 206 156 167 b 164 50 154 113 156 63 b 219 22 175 33 199 26 b 351 15 263 14 308 14 z m 538 560 b 650 563 575 561 614 561 b 639 468 646 531 642 500 b 519 468 608 468 567 468 b 538 560 525 499 531 529 z "},"$":{"ha":882,"x_min":null,"x_max":null,"o":"m 482 -40 b 542 -29 503 -40 526 -42 b 558 40 556 -19 557 24 b 560 93 558 47 560 72 b 606 100 575 94 590 97 b 721 133 646 107 686 117 b 818 229 767 154 800 192 b 839 443 851 296 854 372 b 671 557 821 522 767 540 b 450 571 599 571 524 568 b 393 576 439 571 401 572 b 431 676 350 600 393 674 b 717 668 526 683 624 653 b 771 693 738 671 758 681 b 799 757 789 711 796 735 b 807 842 803 785 804 813 b 807 911 808 864 810 888 b 790 938 806 921 800 932 b 706 951 776 947 724 950 b 542 961 651 954 596 958 b 525 1050 546 997 544 1035 b 488 1064 514 1058 500 1063 b 372 1047 458 1068 392 1069 b 361 957 360 1033 360 990 b 246 938 322 953 283 947 b 146 896 210 928 174 915 b 56 800 107 869 74 836 b 46 603 25 738 42 669 b 251 467 53 508 96 467 b 444 456 290 467 414 474 b 406 353 476 436 499 360 b 261 353 356 349 311 353 b 158 356 228 351 192 357 b 107 347 140 354 124 353 b 61 285 83 339 64 304 b 82 131 57 253 60 157 b 125 103 92 118 107 108 b 213 86 151 93 182 89 b 392 81 271 81 332 79 b 392 78 392 79 392 78 b 393 -10 392 64 390 4 b 482 -40 400 -40 450 -42 z "},"%":{"ha":1450,"x_min":null,"x_max":null,"o":"m 632 -31 b 660 -12 643 -28 653 -21 b 682 39 671 3 676 21 b 776 299 710 126 743 213 b 1046 854 851 490 940 678 b 1086 926 1060 878 1075 901 b 1103 976 1094 942 1101 960 b 1090 1011 1103 989 1099 1001 b 963 1044 1071 1031 992 1043 b 897 1039 940 1046 917 1049 b 856 999 879 1031 867 1014 b 775 844 824 950 801 896 b 431 85 646 599 521 347 b 419 44 425 72 422 58 b 426 13 418 33 421 19 b 467 -10 436 1 451 -6 b 603 -33 511 -24 557 -31 b 632 -31 613 -33 622 -33 z m 576 558 b 576 868 638 668 633 782 b 39 822 475 1019 115 1013 b 150 468 -10 701 19 526 b 576 558 303 397 501 422 z m 275 650 b 265 794 260 664 246 747 b 381 814 290 861 360 846 b 392 671 408 768 397 690 b 275 650 375 621 315 614 z m 1390 157 b 1390 467 1451 267 1447 381 b 853 421 1289 618 929 611 b 963 65 804 299 833 125 b 1390 157 1117 -4 1314 21 z m 1089 249 b 1078 393 1074 263 1060 346 b 1193 413 1104 460 1174 444 b 1206 269 1222 367 1211 289 b 1089 249 1189 219 1129 213 z "},"&":{"ha":1065,"x_min":null,"x_max":null,"o":"m 753 -72 b 817 -71 774 -72 794 -72 b 878 -61 838 -69 858 -69 b 908 -31 890 -54 904 -44 b 906 42 914 -7 911 18 b 888 156 899 79 892 117 b 886 213 886 167 881 203 b 913 217 890 219 906 218 b 976 215 935 217 957 210 b 1021 344 1014 228 1015 306 b 1032 426 1024 371 1028 399 b 1040 533 1036 461 1046 497 b 1014 575 1038 549 1028 567 b 876 600 974 599 922 599 b 688 597 813 601 750 600 b 613 593 663 596 638 594 b 549 569 589 590 564 585 b 525 500 532 551 528 525 b 528 354 521 475 519 379 b 553 317 532 340 540 325 b 607 292 569 306 590 301 b 564 261 601 282 574 265 b 465 233 532 247 499 235 b 369 274 429 231 393 246 b 338 344 353 294 342 318 b 350 460 331 382 332 425 b 406 513 361 482 382 501 b 472 536 426 524 450 529 b 503 563 486 540 497 550 b 489 661 517 592 514 640 b 438 690 474 674 453 679 b 446 810 397 721 406 781 b 508 829 464 824 486 828 b 554 821 524 831 542 831 b 568 718 574 807 565 743 b 588 689 569 707 578 694 b 725 683 610 679 701 683 b 831 683 760 683 796 681 b 863 696 842 683 856 688 b 875 740 872 708 875 725 b 897 983 878 822 882 903 b 904 1089 903 1018 914 1056 b 769 1126 890 1131 813 1128 b 686 1124 742 1126 714 1126 b 625 1111 665 1122 644 1119 b 592 1082 613 1106 600 1094 b 575 1036 583 1068 578 1053 b 511 1053 550 1044 525 1050 b 314 1044 446 1063 376 1063 b 158 643 140 994 6 776 b 215 613 175 629 194 619 b 133 557 185 599 157 581 b 68 451 106 528 83 490 b 32 279 46 397 32 338 b 306 -6 31 135 163 7 b 614 42 408 -15 514 11 b 625 44 617 42 621 43 b 626 7 625 29 626 15 b 646 -44 629 -11 635 -31 b 686 -68 656 -56 671 -64 b 753 -72 707 -74 731 -72 z "},"'":{"ha":329,"x_min":null,"x_max":null,"o":"m 219 682 b 249 721 228 688 244 713 b 301 946 279 792 299 869 b 275 1035 303 974 300 1024 b 246 1040 267 1039 256 1039 b 151 1036 214 1043 182 1038 b 61 1028 121 1033 90 1035 b 32 1003 49 1024 36 1014 b 38 942 25 983 36 961 b 49 794 42 892 43 843 b 67 710 51 765 53 736 b 97 683 72 699 85 688 b 185 675 125 675 156 676 b 219 682 196 674 210 675 z "},"(":{"ha":624,"x_min":null,"x_max":null,"o":"m 492 -174 b 529 -154 506 -172 519 -164 b 588 -11 553 -128 590 -47 b 578 10 588 -4 583 4 b 529 40 563 21 544 28 b 310 367 425 118 343 239 b 350 764 276 496 289 646 b 464 942 378 817 426 896 b 585 1092 493 974 579 1049 b 561 1150 588 1113 575 1133 b 482 1229 550 1164 499 1221 b 440 1235 469 1238 454 1239 b 401 1214 425 1232 414 1222 b 224 1022 331 1163 274 1093 b 78 733 163 933 108 838 b 42 507 56 661 47 583 b 79 190 35 401 40 290 b 319 -114 125 69 211 -44 b 440 -169 357 -137 397 -157 b 492 -174 457 -174 475 -176 z "},")":{"ha":614,"x_min":null,"x_max":null,"o":"m 161 -169 b 200 -149 176 -165 188 -157 b 381 40 272 -99 329 -31 b 532 325 444 126 499 224 b 572 551 556 399 565 475 b 540 869 582 657 578 769 b 304 1176 496 990 413 1106 b 185 1235 268 1201 228 1222 b 133 1240 169 1240 151 1243 b 97 1221 119 1239 107 1231 b 35 1079 72 1196 33 1115 b 46 1058 36 1072 39 1064 b 92 1028 60 1047 78 1039 b 307 697 196 947 276 825 b 260 300 338 568 322 417 b 142 125 231 249 182 169 b 18 -24 113 93 25 19 b 42 -82 15 -44 28 -65 b 119 -162 53 -96 103 -154 b 161 -169 131 -171 147 -172 z "},"*":{"ha":646,"x_min":null,"x_max":null,"o":"m 246 456 b 322 590 271 471 308 564 b 339 622 326 601 332 613 b 340 619 339 621 340 621 b 390 497 358 579 374 538 b 415 463 397 485 404 471 b 511 485 438 447 488 472 b 596 560 535 499 590 533 b 572 614 600 578 586 599 b 490 696 546 642 517 667 b 474 715 488 699 481 707 b 507 725 485 718 496 721 b 606 763 522 729 592 754 b 615 797 615 769 618 785 b 585 921 611 819 599 903 b 569 931 581 925 575 929 b 519 917 558 933 529 922 b 446 882 494 906 469 894 b 401 857 431 874 415 865 b 428 968 408 894 415 932 b 429 1050 436 996 456 1038 b 310 1058 410 1058 331 1058 b 217 1028 276 1058 224 1061 b 219 976 214 1021 218 985 b 239 864 224 938 229 900 b 244 842 240 860 242 851 b 215 863 235 847 225 854 b 135 922 189 882 163 904 b 101 929 125 928 113 933 b 68 893 86 924 76 907 b 24 785 54 872 21 810 b 81 750 26 765 63 756 b 164 725 108 742 136 732 b 194 717 174 722 185 719 b 185 704 190 711 186 706 b 92 590 153 667 125 626 b 75 564 85 583 78 575 b 114 507 72 546 100 519 b 218 450 131 490 196 454 b 246 456 228 449 238 451 z "},"+":{"ha":876,"x_min":null,"x_max":null,"o":"m 550 236 b 571 363 579 253 572 325 b 569 433 571 386 569 410 b 597 432 579 433 589 433 b 743 429 646 431 694 429 b 826 454 774 431 810 436 b 843 490 836 465 840 478 b 838 688 854 529 861 651 b 690 707 819 715 735 708 b 569 704 650 706 610 704 b 571 881 571 764 578 822 b 524 933 568 914 550 932 b 363 933 474 935 411 942 b 326 921 350 932 338 928 b 306 894 318 915 310 906 b 297 846 300 879 299 863 b 293 701 293 797 292 750 b 88 701 225 703 156 708 b 28 654 50 697 28 681 b 28 492 26 603 19 542 b 43 457 31 479 35 467 b 75 436 50 447 63 440 b 131 428 93 431 113 429 b 297 425 186 424 242 424 b 293 319 294 390 293 356 b 314 242 294 294 296 256 b 350 225 324 232 338 229 b 550 236 388 217 514 217 z "},",":{"ha":408,"x_min":null,"x_max":null,"o":"m 250 -144 b 281 -117 261 -136 271 -128 b 381 113 336 -56 369 31 b 354 240 386 156 378 204 b 279 300 339 268 310 289 b 140 299 236 314 183 314 b 54 218 103 286 71 254 b 26 83 35 176 19 129 b 75 -6 31 50 49 15 b 164 -37 100 -24 133 -28 b 183 -49 171 -39 179 -43 b 215 -114 199 -68 208 -92 b 228 -142 218 -124 221 -135 b 250 -144 233 -147 244 -149 z "},"-":{"ha":739,"x_min":null,"x_max":null,"o":"m 500 396 b 619 393 540 394 579 392 b 688 421 643 393 674 400 b 701 463 696 433 699 449 b 697 689 710 507 715 649 b 576 713 682 722 613 714 b 383 708 511 708 447 710 b 260 706 342 708 301 706 b 82 706 201 707 140 714 b 32 650 51 701 33 682 b 33 464 31 593 25 521 b 46 424 35 450 39 435 b 71 400 51 413 61 404 b 118 390 86 393 101 392 b 500 396 244 378 372 401 z "},".":{"ha":342,"x_min":null,"x_max":null,"o":"m 247 13 b 317 181 294 40 326 128 b 279 242 313 204 299 228 b 160 276 246 267 201 276 b 36 188 110 275 56 233 b 25 108 25 163 21 133 b 83 15 31 72 53 35 b 149 -4 103 3 125 -3 b 247 13 182 -7 218 -4 z "},"/":{"ha":654,"x_min":null,"x_max":null,"o":"m 228 -24 b 265 51 251 -8 258 25 b 289 132 274 78 281 106 b 378 386 313 218 346 303 b 475 640 410 471 440 557 b 569 846 506 710 536 778 b 640 1024 586 879 646 986 b 615 1060 639 1038 628 1053 b 446 1074 578 1081 483 1092 b 392 1014 421 1063 404 1038 b 269 744 344 926 300 839 b 268 743 268 744 268 743 b 136 419 218 638 176 529 b 28 100 97 314 58 208 b 14 31 21 78 14 54 b 21 -1 14 19 15 8 b 56 -24 28 -12 42 -21 b 228 -24 93 -32 196 -43 z "},":":{"ha":364,"x_min":null,"x_max":null,"o":"m 258 579 b 328 747 306 607 338 694 b 290 808 324 771 310 794 b 171 843 257 833 213 843 b 47 754 121 843 67 801 b 36 675 36 729 32 701 b 94 582 42 639 64 601 b 160 563 114 571 136 564 b 258 579 193 560 229 563 z m 258 140 b 328 308 306 168 338 254 b 290 369 324 332 310 354 b 172 403 258 394 213 403 b 47 314 121 403 67 361 b 36 235 38 289 32 261 b 94 143 43 199 64 163 b 160 122 114 131 138 124 b 258 140 193 121 229 124 z "},";":{"ha":401,"x_min":null,"x_max":null,"o":"m 290 535 b 367 719 342 565 378 661 b 325 788 361 746 346 771 b 194 825 289 815 239 825 b 57 726 138 825 79 778 b 46 639 46 700 40 668 b 110 538 51 600 75 560 b 181 515 131 524 156 517 b 290 535 218 513 258 515 z m 232 -93 b 258 -69 242 -86 251 -79 b 346 132 307 -15 336 60 b 324 244 351 169 344 211 b 258 296 310 268 285 286 b 135 296 219 308 174 308 b 61 225 103 285 75 256 b 36 106 43 188 31 146 b 78 28 40 76 54 46 b 156 0 100 11 129 8 b 174 -10 163 -1 169 -4 b 201 -68 186 -26 196 -47 b 213 -92 204 -76 206 -86 b 232 -93 217 -97 226 -99 z "},"<":{"ha":618,"x_min":null,"x_max":null,"o":"m 478 90 b 518 132 496 96 510 115 b 575 293 542 183 560 238 b 563 386 589 340 607 365 b 278 510 482 425 353 460 b 283 525 275 515 281 521 b 454 661 328 582 393 621 b 549 724 486 681 521 699 b 558 768 563 738 567 751 b 486 863 547 794 514 853 b 439 858 472 868 454 864 b 149 625 332 808 232 707 b 47 504 111 588 74 549 b 14 425 33 479 17 453 b 33 364 13 404 24 383 b 407 101 113 228 269 164 b 478 90 428 90 454 85 z "},"=":{"ha":500,"x_min":null,"x_max":null,"o":"m 126 585 b 210 589 154 586 182 588 b 450 618 263 590 413 579 b 467 682 465 633 465 660 b 460 778 467 699 467 763 b 436 800 456 788 446 794 b 347 804 422 808 364 804 b 189 807 294 804 242 807 b 61 782 157 808 81 807 b 44 706 46 761 46 731 b 49 628 43 679 42 653 b 72 594 53 615 61 601 b 126 585 89 586 108 585 z m 117 271 b 199 275 144 272 171 274 b 440 304 253 276 403 265 b 456 367 456 319 456 346 b 449 464 456 385 456 449 b 426 485 444 474 435 481 b 338 490 413 494 354 490 b 178 493 283 490 231 493 b 51 467 146 494 71 493 b 35 392 36 447 36 417 b 39 314 33 365 32 339 b 63 281 42 301 50 288 b 117 271 78 272 99 271 z "},">":{"ha":618,"x_min":null,"x_max":null,"o":"m 213 101 b 585 364 349 164 506 228 b 604 425 596 383 606 404 b 571 504 603 453 585 479 b 469 625 544 549 507 588 b 179 858 386 707 286 808 b 132 863 165 864 147 868 b 60 768 104 853 71 794 b 69 724 51 751 56 738 b 164 661 97 699 132 681 b 335 525 225 621 290 582 b 342 510 338 521 343 515 b 56 386 267 460 136 425 b 43 293 11 365 29 340 b 101 132 58 238 76 183 b 140 90 108 115 122 96 b 213 101 164 85 190 90 z "},"?":{"ha":733,"x_min":null,"x_max":null,"o":"m 404 311 b 429 346 417 318 426 332 b 429 431 435 374 429 401 b 429 456 429 435 429 446 b 468 461 443 457 457 460 b 690 868 653 494 775 700 b 628 953 674 899 654 928 b 449 1043 579 999 515 1038 b 324 1044 407 1047 365 1046 b 51 1024 240 1040 135 1040 b 25 950 14 1015 22 986 b 36 722 31 874 26 797 b 51 688 38 710 42 696 b 90 683 63 681 78 682 b 215 710 133 685 174 701 b 332 733 254 719 293 725 b 379 739 347 736 363 739 b 385 640 481 738 483 664 b 226 603 332 628 278 619 b 200 572 214 599 201 586 b 194 411 194 519 197 465 b 197 319 194 393 188 335 b 254 300 208 303 235 301 b 404 311 283 297 379 297 z m 481 38 b 342 228 525 132 446 226 b 213 -18 200 229 89 54 b 481 38 307 -74 435 -62 z "},"@":{"ha":1232,"x_min":null,"x_max":null,"o":"m 858 -139 b 1122 -74 915 -133 1083 -115 b 1142 21 1144 -51 1143 -12 b 1124 165 1142 43 1135 146 b 908 143 1090 219 971 154 b 381 139 782 121 476 53 b 340 661 246 258 249 506 b 510 785 375 722 442 769 b 865 771 572 799 804 786 b 950 532 967 746 982 631 b 853 535 926 464 850 463 b 828 688 856 586 869 657 b 415 650 719 772 519 739 b 351 293 329 576 306 396 b 760 318 426 126 665 161 b 1088 311 860 236 1004 213 b 1043 963 1232 479 1244 818 b 442 994 943 1033 558 1029 b 103 51 21 871 -33 411 b 325 -139 142 -49 218 -112 b 858 -139 497 -182 682 -158 z m 604 461 b 672 557 604 507 626 551 b 703 464 715 563 710 507 b 604 461 688 369 604 385 z "},"A":{"ha":1035,"x_min":null,"x_max":null,"o":"m 882 -11 b 913 18 893 -3 907 6 b 947 131 929 53 940 92 b 1000 676 978 283 1011 522 b 694 1046 985 861 897 994 b 539 1058 644 1058 590 1058 b 324 1040 467 1058 393 1057 b 157 949 263 1025 203 992 b 93 858 131 922 111 890 b 42 694 67 808 51 751 b 38 419 26 604 28 511 b 76 165 46 335 57 249 b 117 46 86 121 103 90 b 325 8 143 -43 258 -11 b 401 83 383 25 410 32 b 383 174 397 114 390 143 b 599 168 454 174 526 171 b 617 168 604 168 611 168 b 613 140 615 157 614 149 b 611 47 608 110 601 76 b 639 15 615 33 626 21 b 693 -1 656 6 675 3 b 882 -11 733 -10 847 -32 z m 365 446 b 342 444 361 446 350 444 b 364 654 340 506 347 574 b 615 782 392 783 528 839 b 667 611 669 746 672 671 b 650 442 664 576 658 513 b 588 442 629 443 604 440 b 365 446 514 442 440 447 z "},"B":{"ha":960,"x_min":null,"x_max":null,"o":"m 351 -83 b 556 -46 419 -75 490 -68 b 738 29 618 -25 679 -1 b 868 143 788 57 833 97 b 926 246 893 175 915 208 b 917 449 946 311 946 388 b 789 558 892 499 840 536 b 768 567 782 563 775 564 b 853 654 799 594 829 622 b 871 906 901 724 911 832 b 804 976 857 935 831 958 b 657 1025 761 1006 708 1017 b 276 1046 532 1046 403 1054 b 129 1021 226 1043 175 1038 b 78 990 110 1015 92 1006 b 54 913 60 969 57 939 b 49 803 50 876 49 839 b 61 231 47 613 53 422 b 60 81 57 181 58 131 b 69 -29 61 43 61 6 b 88 -64 72 -43 78 -56 b 118 -79 94 -72 107 -76 b 190 -83 142 -83 167 -82 b 261 -89 214 -85 238 -87 b 351 -83 292 -89 322 -87 z m 390 819 b 450 828 408 828 431 829 b 597 758 500 825 583 806 b 576 711 603 739 594 721 b 492 688 550 699 521 694 b 346 660 443 678 394 669 b 390 819 346 707 347 800 z m 349 453 b 356 464 351 454 356 458 b 518 483 408 475 463 486 b 578 472 538 483 560 482 b 597 422 596 463 607 442 b 554 386 593 413 563 392 b 472 347 528 369 501 354 b 361 329 436 339 399 336 b 360 329 361 329 361 329 b 349 453 353 369 350 411 z "},"C":{"ha":851,"x_min":null,"x_max":null,"o":"m 671 -24 b 799 42 715 -8 760 13 b 833 96 815 56 829 75 b 835 142 838 111 836 126 b 804 297 828 194 815 246 b 774 406 797 333 792 372 b 733 432 767 419 749 429 b 671 421 713 433 690 428 b 411 397 610 400 464 360 b 360 500 379 419 364 463 b 375 660 353 553 351 613 b 471 732 394 699 428 724 b 665 731 535 744 600 733 b 729 742 686 731 711 731 b 753 783 742 750 749 768 b 775 999 765 826 793 957 b 733 1033 768 1015 750 1028 b 597 1039 689 1046 642 1035 b 339 1021 511 1047 421 1049 b 192 924 283 1001 232 967 b 106 807 157 889 128 849 b 36 585 68 739 49 661 b 26 349 24 507 18 426 b 103 139 35 275 63 201 b 249 6 139 83 190 35 b 671 -24 375 -58 536 -65 z "},"D":{"ha":985,"x_min":null,"x_max":null,"o":"m 557 -24 b 743 65 624 -4 688 25 b 928 282 821 121 892 194 b 964 482 956 344 963 414 b 931 729 965 565 960 651 b 849 871 911 781 882 828 b 689 1003 807 925 753 975 b 539 1033 642 1022 589 1029 b 238 1032 439 1042 336 1046 b 119 997 196 1026 153 1019 b 78 940 99 985 85 963 b 65 875 71 919 68 897 b 50 701 57 818 53 760 b 57 278 42 561 46 418 b 56 253 57 274 56 256 b 64 68 56 192 58 129 b 79 -18 65 39 65 7 b 113 -42 86 -31 100 -37 b 283 -64 167 -58 225 -62 b 557 -24 375 -64 469 -50 z m 372 381 b 353 410 364 385 354 400 b 361 728 343 515 344 622 b 372 761 363 735 367 756 b 401 768 376 765 396 767 b 497 763 433 769 467 771 b 547 733 515 757 533 746 b 618 622 579 703 606 664 b 614 499 631 582 631 536 b 517 403 597 457 560 419 b 404 376 481 389 442 379 b 372 381 397 376 376 378 z "},"E":{"ha":810,"x_min":null,"x_max":null,"o":"m 565 -24 b 671 -15 601 -21 636 -19 b 763 33 706 -11 742 7 b 788 124 782 58 788 92 b 775 294 788 181 786 239 b 743 374 769 322 763 353 b 708 386 735 382 721 385 b 382 368 600 396 492 368 b 339 375 369 368 344 364 b 336 507 329 399 332 483 b 422 501 364 507 393 504 b 539 497 461 497 500 494 b 607 528 564 499 593 507 b 624 607 622 550 624 581 b 615 693 625 625 625 679 b 558 713 604 710 579 713 b 382 701 500 714 442 706 b 350 701 376 701 356 699 b 343 726 344 704 344 719 b 344 788 342 736 342 778 b 358 790 346 792 353 790 b 585 767 433 783 508 769 b 733 790 618 765 708 768 b 758 857 750 807 754 833 b 765 931 764 882 765 907 b 719 1049 767 974 763 1039 b 676 1051 706 1051 690 1051 b 304 1063 553 1051 429 1056 b 136 1051 249 1065 190 1064 b 83 1003 108 1046 92 1029 b 68 838 68 950 69 893 b 68 835 68 838 68 836 b 49 342 51 671 51 506 b 47 200 47 294 47 247 b 56 75 47 158 47 115 b 79 7 60 51 67 28 b 136 -32 92 -11 114 -25 b 228 -40 165 -42 197 -40 b 565 -24 340 -42 453 -31 z "},"F":{"ha":853,"x_min":null,"x_max":null,"o":"m 364 -36 b 388 -10 374 -29 383 -19 b 393 36 392 6 393 21 b 375 211 390 94 379 153 b 376 296 372 239 371 268 b 399 303 379 304 390 303 b 613 308 469 307 542 306 b 674 322 633 310 656 313 b 699 354 685 329 693 342 b 688 524 715 394 713 488 b 650 550 679 536 665 544 b 592 557 632 556 611 557 b 385 549 522 557 454 549 b 364 551 381 549 367 549 b 361 560 363 553 361 557 b 365 689 358 585 351 665 b 374 692 365 690 372 690 b 426 693 390 696 408 693 b 701 674 518 693 611 685 b 779 671 728 671 754 664 b 814 715 797 675 810 697 b 832 981 825 767 853 932 b 803 1013 826 994 815 1006 b 614 1051 747 1044 678 1049 b 303 1031 510 1056 406 1044 b 160 1006 256 1025 206 1022 b 110 965 140 999 122 983 b 76 875 92 939 83 907 b 46 578 54 778 50 678 b 58 138 40 431 43 283 b 61 89 60 121 58 104 b 71 17 63 64 68 40 b 197 -57 82 -56 140 -56 b 364 -36 240 -58 329 -60 z "},"G":{"ha":1021,"x_min":null,"x_max":null,"o":"m 754 -12 b 965 649 993 81 1040 404 b 821 697 946 708 882 710 b 569 635 736 679 651 658 b 465 576 536 626 472 610 b 544 357 449 497 468 381 b 649 346 578 347 661 379 b 335 479 606 218 397 260 b 553 839 286 647 389 901 b 635 729 596 822 593 747 b 819 767 671 713 781 756 b 863 953 914 790 929 882 b 28 375 503 1331 -56 890 b 754 -12 85 25 424 -142 z "},"H":{"ha":1088,"x_min":null,"x_max":null,"o":"m 340 -31 b 396 -15 360 -28 379 -22 b 422 10 407 -10 418 -1 b 425 196 439 40 426 161 b 422 221 425 203 425 211 b 474 219 440 219 457 219 b 658 214 544 217 589 222 b 693 211 664 214 681 211 b 692 35 690 151 688 93 b 704 0 693 22 696 8 b 744 -18 714 -11 729 -17 b 972 -24 782 -22 933 -29 b 1025 126 1043 -11 1022 67 b 1028 451 1028 235 1026 343 b 1038 788 1031 564 1036 675 b 1036 976 1039 850 1043 914 b 1024 1018 1035 990 1032 1006 b 986 1042 1015 1031 1001 1039 b 932 1044 968 1044 950 1044 b 711 1040 904 1044 735 1054 b 696 1022 704 1036 699 1029 b 690 917 688 1004 689 936 b 694 475 694 769 699 622 b 518 465 626 476 585 468 b 426 456 488 464 456 461 b 418 886 418 600 417 738 b 413 982 419 918 422 951 b 385 1013 410 996 397 1007 b 204 1036 329 1038 264 1039 b 92 1026 167 1035 129 1033 b 49 925 44 1018 49 961 b 58 408 51 753 57 581 b 57 117 58 311 57 214 b 60 24 57 86 57 56 b 79 -18 61 8 67 -8 b 340 -31 125 -61 278 -42 z "},"I":{"ha":818,"x_min":null,"x_max":null,"o":"m 153 -8 b 582 -6 289 -1 444 -7 b 699 -7 621 -4 660 -8 b 743 1 714 -6 729 -4 b 775 29 756 7 768 17 b 790 104 788 51 789 79 b 790 303 790 140 792 267 b 781 335 790 314 789 326 b 735 349 774 340 744 347 b 526 363 665 361 607 367 b 536 743 524 514 524 592 b 711 733 594 743 653 738 b 757 747 726 733 746 736 b 776 856 772 764 775 833 b 775 993 778 886 793 967 b 750 1013 769 1001 761 1010 b 235 1038 601 1047 404 1053 b 89 1013 185 1033 136 1025 b 42 981 69 1007 42 1006 b 40 842 40 933 40 888 b 51 743 40 808 36 774 b 99 715 58 726 76 717 b 313 735 169 713 240 733 b 315 735 313 735 314 735 b 311 589 313 686 311 638 b 301 363 310 489 304 463 b 42 315 238 363 81 342 b 29 272 29 307 29 288 b 33 90 29 238 29 126 b 40 14 33 61 35 26 b 79 -8 47 3 64 -6 b 153 -8 104 -12 128 -10 z "},"J":{"ha":872,"x_min":null,"x_max":null,"o":"m 363 -44 b 565 -25 429 -39 499 -40 b 654 8 596 -18 628 -10 b 761 136 701 39 739 86 b 831 522 814 256 825 392 b 833 758 835 600 838 679 b 824 904 831 807 826 856 b 824 907 824 906 824 906 b 829 963 826 925 828 944 b 821 999 829 975 826 988 b 750 1029 801 1029 786 1028 b 403 1029 658 1035 494 1031 b 264 1022 364 1029 303 1031 b 232 824 225 1015 215 888 b 260 782 235 807 244 789 b 325 778 279 772 303 775 b 519 800 390 783 456 793 b 556 801 532 801 544 803 b 558 789 560 801 558 793 b 553 603 565 728 564 664 b 500 460 543 553 532 500 b 424 417 481 438 451 424 b 213 393 356 399 283 392 b 99 396 175 393 136 397 b 60 389 85 396 71 394 b 36 369 50 385 42 378 b 18 193 18 340 19 226 b 14 28 17 138 14 83 b 26 -17 14 13 17 -6 b 147 -43 44 -37 119 -40 b 363 -44 218 -49 290 -51 z "},"K":{"ha":1011,"x_min":null,"x_max":null,"o":"m 768 -43 b 936 -19 824 -42 881 -31 b 1001 14 960 -15 988 -7 b 956 163 1026 51 979 124 b 811 388 908 238 858 311 b 669 626 763 467 717 546 b 692 643 678 632 685 638 b 896 779 756 694 828 733 b 974 844 924 797 956 815 b 976 906 983 861 983 886 b 903 1019 965 932 929 1007 b 861 1019 890 1025 874 1025 b 526 793 736 969 626 883 b 429 704 494 764 463 733 b 433 869 432 758 433 814 b 426 1018 435 894 436 993 b 372 1051 418 1038 393 1049 b 182 1054 310 1061 244 1057 b 124 1049 163 1054 143 1051 b 75 1013 104 1044 81 1032 b 63 938 68 989 64 963 b 53 190 47 689 51 439 b 57 97 53 158 53 128 b 72 28 58 74 63 49 b 110 -10 81 11 93 -3 b 201 -25 138 -25 171 -26 b 372 -7 258 -24 317 -19 b 410 28 390 -3 403 8 b 414 146 417 46 415 125 b 415 443 411 244 413 344 b 435 456 422 447 428 451 b 444 438 439 447 443 440 b 561 189 488 356 519 271 b 650 32 588 135 618 82 b 689 -19 661 14 672 -6 b 768 -43 708 -37 740 -44 z "},"L":{"ha":767,"x_min":null,"x_max":null,"o":"m 529 -25 b 696 -17 585 -22 640 -25 b 732 3 710 -14 724 -8 b 753 186 757 32 751 149 b 733 403 753 228 754 367 b 714 425 731 407 719 422 b 672 432 701 432 686 432 b 465 411 603 429 535 413 b 368 406 433 410 401 408 b 347 408 363 406 350 404 b 338 469 340 418 338 458 b 339 647 335 529 338 588 b 347 969 340 754 343 863 b 328 1033 349 1003 358 1026 b 231 1033 306 1039 254 1035 b 226 1033 229 1033 228 1033 b 100 1024 204 1036 122 1032 b 75 997 89 1019 79 1008 b 67 926 68 975 68 950 b 60 749 64 868 63 808 b 49 326 53 608 49 467 b 60 64 49 239 47 150 b 78 7 63 44 67 24 b 121 -22 88 -7 104 -18 b 226 -33 154 -32 190 -31 b 529 -25 326 -37 428 -32 z "},"M":{"ha":1233,"x_min":null,"x_max":null,"o":"m 265 -32 b 354 -26 294 -31 325 -31 b 397 -6 369 -24 386 -17 b 411 44 408 8 411 28 b 404 147 413 79 407 113 b 389 382 399 225 392 304 b 383 592 388 451 389 522 b 426 514 399 567 413 540 b 524 310 461 447 490 378 b 560 256 533 290 544 271 b 611 233 572 242 592 235 b 615 233 613 233 614 233 b 632 236 621 233 628 233 b 674 261 647 240 663 249 b 722 338 694 283 708 311 b 825 550 756 408 788 481 b 850 590 833 564 840 576 b 843 381 844 521 846 451 b 828 136 840 300 833 218 b 822 42 825 106 819 74 b 836 -4 822 25 825 7 b 863 -21 843 -12 851 -18 b 969 -32 896 -32 933 -29 b 1117 -29 1018 -36 1069 -40 b 1179 19 1142 -24 1169 -6 b 1192 65 1186 33 1189 50 b 1199 193 1199 107 1200 151 b 1153 744 1193 378 1179 561 b 1106 1003 1140 831 1126 917 b 1018 1029 1099 1033 1049 1031 b 936 1022 990 1028 961 1031 b 900 1004 924 1018 911 1011 b 868 964 893 1000 872 971 b 776 815 835 917 807 865 b 685 671 747 767 717 718 b 618 571 664 638 642 603 b 606 586 613 578 607 583 b 492 757 565 640 529 699 b 357 975 446 829 407 906 b 306 1018 343 993 326 1013 b 228 1028 281 1026 254 1028 b 129 1008 199 1028 142 1035 b 118 960 124 993 121 976 b 36 247 69 726 49 486 b 81 -14 33 178 22 25 b 151 -35 100 -28 126 -33 b 265 -32 189 -39 226 -36 z "},"N":{"ha":1069,"x_min":null,"x_max":null,"o":"m 978 -4 b 994 36 988 7 992 22 b 1003 96 999 56 1001 76 b 1011 286 1007 160 1008 224 b 1018 432 1014 335 1017 383 b 1015 629 1018 499 1015 564 b 1019 968 1018 742 1022 854 b 1013 1011 1019 982 1017 997 b 992 1039 1010 1022 1001 1032 b 931 1057 975 1051 953 1056 b 846 1051 903 1057 874 1053 b 768 1043 819 1049 794 1047 b 714 1019 749 1039 726 1035 b 693 942 697 999 694 968 b 701 656 689 846 696 750 b 708 469 704 593 706 532 b 711 379 710 439 713 410 b 639 461 683 404 661 432 b 546 596 606 504 576 550 b 431 857 503 681 461 767 b 375 997 414 904 403 954 b 329 1036 365 1014 349 1031 b 296 1038 318 1038 307 1038 b 172 1028 254 1036 214 1029 b 94 1013 146 1026 117 1026 b 65 954 76 1000 68 975 b 51 711 51 874 51 793 b 54 550 53 658 53 604 b 50 425 51 508 50 467 b 65 50 51 300 56 175 b 74 -3 67 32 67 13 b 104 -28 79 -15 92 -24 b 194 -36 133 -36 164 -36 b 338 -22 243 -36 292 -35 b 382 -1 346 -19 376 -7 b 401 40 394 8 400 25 b 403 97 404 58 404 78 b 357 554 397 250 371 401 b 357 556 357 556 357 556 b 399 488 371 533 386 510 b 600 115 469 365 535 240 b 661 14 618 81 636 44 b 713 -22 674 -3 692 -15 b 824 -43 747 -35 786 -44 b 978 -4 863 -43 956 -35 z "},"O":{"ha":969,"x_min":null,"x_max":null,"o":"m 750 51 b 906 815 942 200 992 589 b 307 1035 826 1021 504 1139 b 63 246 50 901 -36 518 b 263 10 97 149 169 53 b 750 51 385 -47 644 -31 z m 365 411 b 414 738 304 490 338 672 b 644 699 490 801 606 789 b 365 411 726 507 493 247 z "},"P":{"ha":1015,"x_min":null,"x_max":null,"o":"m 339 -3 b 388 319 415 -3 397 43 b 1000 740 626 256 1021 299 b 142 1006 983 1086 501 1135 b 47 708 46 971 46 811 b 69 49 50 483 46 272 b 150 -11 75 -11 125 -11 b 339 -3 218 -11 283 -3 z m 381 568 b 399 903 382 629 351 865 b 629 736 463 953 629 953 b 381 568 629 431 410 488 z "},"Q":{"ha":971,"x_min":null,"x_max":null,"o":"m 707 -178 b 857 -144 740 -176 833 -168 b 865 -129 861 -140 864 -135 b 858 -93 867 -117 863 -104 b 788 88 838 -32 807 26 b 906 815 949 254 985 604 b 307 1035 826 1021 504 1139 b 63 246 50 901 -36 518 b 263 10 97 149 169 53 b 576 -14 338 -25 465 -32 b 601 -103 585 -43 593 -72 b 624 -156 607 -121 613 -140 b 654 -175 631 -165 643 -172 b 707 -178 671 -179 689 -178 z m 365 411 b 414 738 304 490 338 672 b 644 699 490 801 606 789 b 365 411 726 507 493 247 z "},"R":{"ha":1025,"x_min":null,"x_max":null,"o":"m 339 -3 b 389 303 414 -3 397 42 b 636 169 522 315 610 324 b 644 39 643 136 642 72 b 665 6 646 25 654 13 b 703 0 676 0 690 0 b 935 3 733 -1 907 -10 b 960 29 947 8 956 17 b 953 165 971 58 958 135 b 914 276 946 204 935 243 b 828 360 892 310 860 336 b 1000 740 935 424 1008 542 b 142 1006 983 1086 501 1135 b 47 708 46 971 46 811 b 69 49 50 483 46 272 b 150 -11 75 -11 125 -11 b 339 -3 218 -11 283 -3 z m 382 522 b 399 903 383 583 351 865 b 629 736 463 953 629 953 b 382 522 629 503 489 503 z "},"S":{"ha":929,"x_min":null,"x_max":null,"o":"m 643 -3 b 768 39 686 7 731 18 b 874 157 817 65 853 111 b 894 419 908 239 913 332 b 714 560 876 515 817 539 b 475 576 636 575 554 572 b 414 583 463 576 424 578 b 454 706 367 611 413 701 b 763 694 557 714 663 676 b 822 726 786 699 808 710 b 851 804 842 747 849 776 b 860 907 856 839 858 874 b 861 993 863 936 864 964 b 843 1026 860 1006 853 1018 b 751 1043 828 1038 771 1042 b 407 1054 636 1049 521 1067 b 254 1025 356 1049 304 1040 b 146 975 215 1014 176 999 b 49 857 104 942 68 901 b 39 615 15 781 33 696 b 260 449 46 499 93 449 b 469 435 301 449 436 457 b 426 307 504 411 528 317 b 271 307 374 303 325 308 b 160 311 235 307 196 313 b 104 301 140 311 122 308 b 54 225 79 292 58 249 b 76 36 50 186 54 69 b 124 1 88 21 106 10 b 218 -18 153 -10 186 -15 b 643 -3 358 -33 504 -29 z "},"T":{"ha":907,"x_min":null,"x_max":null,"o":"m 446 -40 b 531 -31 475 -39 503 -36 b 576 -11 546 -26 563 -21 b 603 33 590 1 600 15 b 603 161 610 75 606 118 b 593 688 594 336 585 513 b 617 683 601 685 611 683 b 757 679 663 678 710 679 b 860 678 776 679 843 669 b 879 704 869 683 878 694 b 897 839 889 749 893 794 b 907 950 901 875 906 913 b 900 1004 907 968 907 986 b 874 1031 894 1015 885 1025 b 783 1051 847 1046 814 1047 b 490 1071 686 1064 588 1068 b 106 1060 361 1072 232 1076 b 33 1033 79 1056 51 1050 b 7 971 17 1017 10 993 b 11 750 -1 897 0 822 b 36 682 15 726 18 699 b 83 669 49 671 68 668 b 193 685 121 672 157 679 b 297 697 228 690 263 693 b 297 697 297 697 297 697 b 282 236 292 543 283 390 b 285 71 281 181 281 125 b 301 7 286 49 290 26 b 336 -25 310 -6 322 -18 b 446 -40 369 -42 410 -42 z "},"U":{"ha":1019,"x_min":null,"x_max":null,"o":"m 694 -7 b 828 57 742 6 789 26 b 922 176 867 89 901 131 b 982 443 961 258 975 353 b 947 910 994 599 978 757 b 913 1021 940 947 929 986 b 882 1050 907 1035 893 1042 b 693 1040 847 1071 733 1049 b 639 1025 675 1038 656 1033 b 611 993 626 1018 615 1007 b 613 899 601 963 608 929 b 651 626 628 808 644 718 b 640 513 654 588 653 547 b 599 456 632 490 618 468 b 358 546 511 399 378 414 b 360 696 350 594 354 646 b 401 956 367 768 394 883 b 325 1031 407 1007 383 1014 b 117 993 258 1050 143 1082 b 76 874 103 949 86 919 b 38 619 57 790 46 706 b 42 344 28 529 26 435 b 93 181 51 288 67 231 b 157 92 111 149 131 117 b 324 0 203 47 263 15 b 539 -19 393 -18 467 -19 b 694 -7 590 -19 644 -19 z "},"V":{"ha":1242,"x_min":null,"x_max":null,"o":"m 751 -43 b 794 -25 767 -40 785 -36 b 846 110 813 -7 838 86 b 950 360 875 194 914 276 b 1144 803 1014 508 1079 656 b 1218 958 1168 856 1196 906 b 1228 1001 1224 972 1228 988 b 1181 1042 1228 1024 1203 1039 b 1114 1047 1158 1044 1136 1047 b 975 1053 1076 1047 1014 1053 b 861 1004 925 1053 881 1082 b 785 764 840 924 810 844 b 736 600 767 710 753 654 b 686 450 719 550 701 500 b 658 363 676 421 669 390 b 560 642 618 453 590 547 b 469 921 531 735 500 828 b 428 1035 457 960 446 999 b 356 1075 417 1057 397 1079 b 68 1024 286 1067 133 1050 b 28 940 21 1006 0 996 b 182 625 81 836 131 731 b 467 24 282 419 363 228 b 504 -32 476 4 486 -18 b 567 -49 521 -44 544 -47 b 751 -43 615 -50 703 -49 z "},"W":{"ha":1349,"x_min":null,"x_max":null,"o":"m 344 93 b 613 378 435 188 524 282 b 1132 -22 719 232 956 -49 b 1289 217 1222 -8 1274 128 b 1269 944 1329 456 1307 704 b 1153 1040 1257 1024 1239 1056 b 896 951 1049 1021 886 1025 b 967 510 903 889 964 572 b 763 633 974 372 881 415 b 585 721 686 774 636 788 b 407 508 529 649 481 565 b 449 847 403 563 438 796 b 435 1038 465 921 506 1017 b 124 1042 364 1057 183 1083 b 96 924 99 1026 99 953 b 38 207 72 685 39 447 b 115 -42 38 128 40 -14 b 344 93 188 -68 290 38 z "},"X":{"ha":1029,"x_min":null,"x_max":null,"o":"m 394 -3 b 431 49 408 13 421 29 b 519 207 458 101 488 154 b 621 56 553 156 588 106 b 657 4 632 39 643 19 b 832 -7 685 -22 785 -12 b 981 -1 860 -4 953 -7 b 999 85 1036 11 1043 22 b 714 503 913 210 815 357 b 1013 894 810 638 913 771 b 1004 947 1033 921 1033 935 b 988 953 1003 949 989 951 b 718 1036 914 982 796 1024 b 686 1033 707 1038 696 1038 b 628 981 663 1022 644 1000 b 490 808 581 928 535 869 b 358 968 446 865 401 918 b 299 1021 340 988 322 1010 b 268 1024 289 1025 278 1025 b 42 953 190 1011 115 982 b 25 947 39 951 26 949 b 17 894 -4 935 -4 921 b 301 518 113 775 208 647 b 31 85 207 365 118 213 b 49 -1 -14 22 -7 11 b 197 -7 76 -7 169 -4 b 394 -3 244 -12 367 -29 z "},"Y":{"ha":1000,"x_min":null,"x_max":null,"o":"m 743 -19 b 897 82 800 3 858 33 b 932 142 913 100 925 119 b 951 382 960 218 956 301 b 939 667 946 476 938 572 b 957 932 939 756 951 844 b 944 1011 960 958 961 990 b 896 1039 933 1026 914 1033 b 814 1044 869 1044 842 1044 b 708 1043 779 1046 743 1044 b 626 1040 681 1043 653 1044 b 594 1026 618 1039 600 1033 b 582 1006 590 1019 586 1014 b 576 978 578 997 576 988 b 583 607 571 854 581 731 b 574 560 583 590 583 572 b 535 544 565 549 549 546 b 422 546 497 540 458 540 b 379 560 413 547 385 551 b 369 638 369 572 369 621 b 393 976 368 750 389 863 b 385 1010 393 988 392 1001 b 272 1035 367 1031 299 1033 b 167 1036 238 1036 201 1039 b 63 1001 136 1033 75 1029 b 49 932 54 979 51 956 b 26 701 38 856 29 778 b 49 536 25 646 25 586 b 149 431 69 490 106 453 b 221 411 171 419 196 413 b 547 411 329 403 439 426 b 568 397 556 410 564 404 b 575 335 578 382 583 349 b 501 321 564 315 522 318 b 304 346 435 328 369 333 b 193 365 268 353 231 364 b 140 346 174 367 153 360 b 89 111 106 310 93 160 b 89 54 88 92 86 72 b 108 15 92 40 97 25 b 181 -19 128 -3 156 -12 b 271 -37 210 -29 240 -35 b 479 -54 340 -46 410 -54 b 743 -19 568 -54 661 -53 z "},"Z":{"ha":854,"x_min":null,"x_max":null,"o":"m 782 -6 b 807 19 793 0 801 8 b 813 211 821 51 814 176 b 799 294 810 239 807 268 b 771 338 793 311 785 328 b 721 357 757 349 739 354 b 624 358 689 361 656 360 b 375 342 540 356 457 350 b 513 479 419 389 465 435 b 581 540 535 500 558 519 b 771 683 631 588 721 635 b 813 743 788 700 803 721 b 825 829 822 771 824 800 b 826 911 826 857 828 885 b 817 971 825 932 824 951 b 785 1010 810 986 799 1000 b 703 1039 761 1026 731 1032 b 524 1040 653 1047 574 1039 b 106 1025 385 1047 243 1049 b 65 1013 92 1022 76 1019 b 50 992 58 1007 53 1000 b 50 796 35 957 44 833 b 63 754 53 782 56 767 b 92 728 69 743 79 728 b 551 775 243 740 394 769 b 321 579 469 699 411 647 b 174 460 271 540 224 499 b 72 382 139 433 106 410 b 47 354 63 374 53 365 b 38 228 38 335 39 250 b 39 33 35 163 19 94 b 71 -4 44 18 56 3 b 175 -4 103 -18 140 -3 b 367 -8 239 -8 303 -6 b 643 -19 458 -11 550 -19 b 782 -6 667 -19 760 -17 z "},"[":{"ha":618,"x_min":null,"x_max":null,"o":"m 435 -222 b 556 -215 475 -219 517 -225 b 588 -190 568 -211 581 -201 b 604 -31 604 -165 603 -61 b 593 44 604 -6 603 21 b 565 67 589 56 576 64 b 486 64 553 71 499 64 b 399 67 457 63 428 63 b 392 68 396 67 392 67 b 378 142 386 79 379 129 b 371 569 364 283 365 426 b 392 931 375 690 382 811 b 396 1042 394 968 394 1004 b 399 1051 396 1044 394 1050 b 543 1049 446 1061 494 1044 b 575 1078 560 1050 571 1060 b 579 1142 581 1099 579 1119 b 582 1247 581 1176 581 1211 b 567 1290 582 1263 579 1282 b 514 1306 553 1301 532 1304 b 147 1292 392 1318 268 1306 b 74 1274 122 1289 94 1289 b 58 1231 63 1264 58 1246 b 60 1082 54 1181 57 1132 b 60 1079 60 1081 60 1081 b 56 546 49 901 57 724 b 58 133 53 408 58 271 b 76 -146 60 40 65 -54 b 92 -200 78 -165 79 -186 b 147 -222 104 -214 126 -219 b 435 -222 242 -237 339 -226 z "},"\\":{"ha":654,"x_min":null,"x_max":null,"o":"m 599 -24 b 633 -1 613 -21 626 -12 b 640 31 639 8 642 19 b 628 100 640 54 635 78 b 519 419 596 208 558 314 b 388 743 479 529 436 638 b 386 744 386 743 386 744 b 264 1014 356 839 310 926 b 210 1074 251 1038 235 1063 b 40 1060 171 1092 76 1081 b 14 1024 26 1053 17 1038 b 85 846 10 986 68 879 b 179 640 118 778 150 710 b 276 386 215 557 244 471 b 367 132 308 303 342 218 b 389 51 374 106 382 78 b 426 -24 396 25 403 -8 b 599 -24 458 -43 563 -32 z "},"]":{"ha":575,"x_min":null,"x_max":null,"o":"m 428 -222 b 482 -200 447 -219 469 -214 b 499 -146 494 -186 496 -165 b 515 133 508 -54 515 40 b 519 546 517 271 521 408 b 515 1079 518 724 525 901 b 515 1082 514 1081 514 1081 b 517 1231 517 1132 521 1181 b 500 1274 515 1246 513 1264 b 428 1292 481 1289 453 1289 b 60 1306 306 1306 182 1318 b 7 1290 42 1304 22 1301 b -7 1247 -4 1282 -7 1263 b -6 1142 -7 1211 -6 1176 b -1 1078 -4 1119 -6 1099 b 32 1049 3 1060 15 1050 b 176 1051 81 1044 129 1061 b 179 1042 179 1050 179 1044 b 182 931 181 1004 179 968 b 204 569 193 811 200 690 b 196 142 210 426 210 283 b 183 68 196 129 188 79 b 176 67 182 67 178 67 b 89 64 147 63 118 63 b 10 67 76 64 21 71 b -18 44 -3 64 -14 56 b -29 -31 -28 21 -29 -6 b -12 -190 -28 -61 -29 -165 b 19 -215 -6 -201 7 -211 b 139 -222 58 -225 100 -219 b 428 -222 236 -226 333 -237 z "},"^":{"ha":651,"x_min":null,"x_max":null,"o":"m 621 614 b 608 715 647 636 625 685 b 431 981 563 804 489 899 b 240 1004 381 1050 313 1088 b 142 874 204 963 172 918 b 38 706 103 819 65 765 b 18 651 29 688 19 671 b 31 617 18 639 22 625 b 165 569 51 594 133 571 b 224 586 186 569 208 572 b 267 667 247 606 257 639 b 325 803 283 714 304 758 b 349 757 333 788 340 772 b 419 593 375 704 385 642 b 450 572 426 583 439 575 b 621 614 493 560 588 585 z "},"_":{"ha":1043,"x_min":null,"x_max":null,"o":"m 960 -301 b 1026 -274 983 -301 1014 -294 b 1042 -232 1035 -261 1039 -246 b 1036 -4 1050 -187 1056 -46 b 915 18 1021 29 953 19 b 350 24 851 15 414 25 b 226 21 308 24 268 21 b 49 21 168 22 107 29 b -1 -33 18 17 0 -3 b 0 -221 -3 -92 -8 -164 b 13 -261 1 -235 6 -249 b 38 -285 18 -272 28 -281 b 85 -294 53 -292 68 -293 b 840 -299 211 -307 711 -293 b 960 -301 879 -300 919 -303 z "},"a":{"ha":890,"x_min":null,"x_max":null,"o":"m 768 -24 b 825 -7 788 -22 810 -21 b 850 118 846 13 849 90 b 860 482 857 239 865 361 b 857 511 860 492 858 501 b 799 735 849 588 832 665 b 724 839 779 774 756 810 b 626 900 696 865 663 888 b 532 926 596 910 564 919 b 350 936 472 940 411 938 b 100 872 282 935 133 932 b 92 838 94 863 93 849 b 101 699 90 792 89 743 b 108 665 103 686 104 675 b 111 658 108 663 110 660 b 132 636 117 649 124 642 b 192 636 150 628 172 632 b 422 678 268 653 344 668 b 496 651 446 681 485 672 b 490 594 506 635 499 613 b 464 569 486 583 476 572 b 446 568 461 568 449 568 b 347 564 413 567 379 567 b 146 506 278 556 204 543 b 88 453 124 492 104 474 b 21 288 50 407 29 346 b 26 147 15 240 14 192 b 90 40 38 107 60 68 b 138 7 104 26 119 14 b 329 -10 197 -17 265 -22 b 478 56 382 1 432 26 b 481 36 479 49 479 42 b 500 -4 483 21 489 6 b 539 -19 511 -14 525 -18 b 610 -24 563 -24 586 -24 b 768 -24 663 -24 715 -26 z m 378 258 b 350 267 368 258 357 260 b 344 344 335 281 340 325 b 368 385 349 360 356 375 b 475 399 397 406 447 421 b 472 304 481 356 481 335 b 438 265 467 288 453 272 b 378 258 419 258 399 257 z "},"b":{"ha":958,"x_min":null,"x_max":null,"o":"m 247 -51 b 350 -35 267 -51 333 -46 b 371 -8 360 -29 368 -19 b 374 49 374 0 375 25 b 421 29 390 42 406 35 b 628 6 486 7 558 1 b 788 44 683 10 740 18 b 899 164 836 71 876 115 b 742 732 974 329 967 694 b 461 732 688 740 515 733 b 401 728 440 732 421 732 b 401 738 401 731 401 733 b 403 914 400 807 400 844 b 401 979 403 936 406 958 b 354 1018 397 999 374 1015 b 76 1017 294 1029 126 1047 b 53 968 60 1007 56 985 b 51 546 39 828 46 686 b 51 131 58 407 51 269 b 60 -6 51 85 49 39 b 85 -40 64 -19 71 -33 b 247 -51 111 -54 217 -53 z m 468 310 b 422 333 451 315 435 322 b 406 376 411 344 407 361 b 403 501 399 446 404 432 b 415 547 403 510 411 540 b 433 557 418 554 426 556 b 508 560 458 563 483 561 b 617 357 653 547 631 419 b 603 331 614 347 608 338 b 468 310 578 297 508 296 z "},"c":{"ha":817,"x_min":null,"x_max":null,"o":"m 456 -26 b 781 85 547 -17 743 -1 b 796 174 793 113 796 144 b 785 314 796 221 793 268 b 754 378 781 338 772 364 b 686 381 735 390 708 385 b 525 361 633 371 579 365 b 400 361 483 358 442 357 b 319 394 371 365 338 371 b 299 514 296 426 293 474 b 325 586 301 540 307 569 b 596 611 374 632 532 622 b 669 600 621 607 646 603 b 708 606 683 600 696 601 b 736 636 721 611 731 624 b 747 689 742 653 744 671 b 747 863 753 725 768 831 b 672 899 732 886 700 894 b 604 908 650 904 628 906 b 404 908 538 913 471 918 b 400 908 403 908 401 908 b 203 864 333 908 261 899 b 150 828 185 854 165 842 b 36 610 86 771 47 696 b 31 313 25 513 24 411 b 118 61 35 224 60 125 b 235 -8 150 28 192 7 b 456 -26 304 -33 382 -33 z "},"d":{"ha":972,"x_min":null,"x_max":null,"o":"m 761 -35 b 897 -4 797 -33 879 -35 b 910 47 907 11 908 29 b 904 290 915 128 906 210 b 933 865 899 482 917 674 b 938 967 936 899 943 933 b 918 1010 936 983 929 999 b 878 1029 907 1019 892 1025 b 799 1039 851 1035 825 1038 b 658 1042 753 1040 706 1044 b 603 1025 639 1040 619 1035 b 569 983 588 1015 575 1000 b 563 940 565 969 563 956 b 567 746 557 842 558 844 b 321 736 454 746 406 743 b 50 597 181 725 114 715 b 19 364 18 538 15 431 b 81 124 24 283 21 186 b 249 31 125 79 186 46 b 360 11 285 21 322 15 b 510 17 410 4 461 10 b 558 28 519 18 544 22 b 586 -12 563 13 572 -1 b 761 -35 615 -37 722 -36 z m 368 415 b 379 554 371 435 371 536 b 560 585 400 599 514 601 b 561 363 571 581 561 374 b 368 415 560 314 353 275 z "},"e":{"ha":889,"x_min":null,"x_max":null,"o":"m 789 69 b 854 174 829 94 851 131 b 847 324 856 224 853 274 b 814 422 844 353 840 404 b 760 425 800 432 778 428 b 664 404 726 419 696 411 b 372 499 571 388 331 326 b 703 499 476 486 599 486 b 790 528 733 501 765 510 b 849 807 860 576 868 729 b 825 858 844 825 838 843 b 763 903 808 878 786 892 b 601 940 713 924 657 939 b 342 924 514 943 426 940 b 147 824 269 908 199 874 b 74 724 117 796 93 760 b 33 611 54 689 40 650 b 22 415 22 547 22 481 b 36 254 22 361 22 307 b 156 81 54 188 96 122 b 458 -8 240 22 353 -6 b 789 69 572 -11 694 11 z m 401 654 b 429 714 397 678 407 700 b 500 735 449 728 475 732 b 557 722 519 736 543 735 b 564 654 576 708 576 674 b 529 638 557 644 543 638 b 404 638 488 638 446 639 b 401 654 404 643 403 649 z "},"f":{"ha":869,"x_min":null,"x_max":null,"o":"m 347 -33 b 407 -4 369 -31 393 -21 b 429 76 424 18 428 49 b 425 208 429 121 428 164 b 690 211 533 210 663 213 b 779 226 717 211 768 206 b 782 369 793 253 789 342 b 771 396 781 379 778 389 b 721 414 761 410 739 414 b 633 411 692 414 663 413 b 410 410 594 410 506 410 b 410 474 408 431 408 451 b 428 526 411 492 417 511 b 474 561 439 542 456 553 b 669 585 535 586 604 588 b 764 575 701 583 732 578 b 808 585 779 574 797 575 b 850 793 849 617 849 743 b 843 919 851 835 856 879 b 806 974 836 940 822 961 b 708 1007 778 993 742 1001 b 464 1019 628 1019 546 1022 b 256 974 393 1018 319 1004 b 192 922 231 961 210 944 b 154 840 174 899 161 869 b 132 453 121 715 126 582 b 133 408 132 438 133 424 b 78 406 111 408 92 407 b 44 399 67 404 54 403 b 25 385 36 396 29 390 b 17 358 21 376 18 368 b 17 240 11 322 15 276 b 53 206 18 221 31 208 b 147 206 85 203 115 204 b 149 188 147 199 149 193 b 185 -24 154 136 140 4 b 347 -33 214 -43 313 -40 z "},"g":{"ha":904,"x_min":null,"x_max":null,"o":"m 460 -232 b 617 -186 514 -228 568 -210 b 717 -128 653 -171 688 -153 b 828 44 769 -83 808 -21 b 861 281 851 119 858 200 b 861 410 863 324 863 367 b 871 604 871 474 872 540 b 857 763 869 657 867 710 b 833 828 853 785 846 808 b 739 892 813 860 775 879 b 154 864 551 957 331 960 b 60 768 115 842 81 807 b 31 618 36 724 31 669 b 85 403 32 544 43 465 b 217 304 115 358 163 319 b 342 290 257 292 300 286 b 475 319 388 294 432 307 b 564 336 493 325 547 343 b 579 301 574 332 578 313 b 526 179 583 257 564 211 b 432 140 501 158 467 146 b 276 142 382 131 328 132 b 122 185 232 161 151 182 b 74 179 106 186 88 186 b 44 139 58 171 49 154 b 19 -12 29 90 25 38 b 15 -61 18 -29 17 -46 b 14 -75 15 -67 15 -71 b 21 -118 13 -90 14 -106 b 60 -153 29 -133 44 -144 b 169 -196 94 -171 132 -183 b 328 -232 221 -214 274 -229 b 460 -232 371 -235 415 -235 z m 503 525 b 478 546 493 529 485 538 b 450 626 460 568 450 599 b 564 726 447 694 507 771 b 503 525 614 688 596 483 z "},"h":{"ha":1004,"x_min":null,"x_max":null,"o":"m 244 -32 b 351 -22 265 -31 332 -25 b 389 69 396 -14 388 17 b 404 501 390 196 406 375 b 510 560 404 565 460 564 b 613 475 561 556 603 528 b 614 322 621 425 615 374 b 603 72 610 239 606 156 b 611 14 601 53 601 32 b 633 -6 615 6 624 -3 b 679 -12 647 -12 664 -12 b 790 -15 717 -14 754 -17 b 878 -11 819 -15 849 -12 b 939 0 899 -11 922 -14 b 975 151 968 22 974 115 b 964 553 978 254 981 465 b 743 732 949 683 867 711 b 463 732 689 740 517 733 b 403 728 442 732 422 732 b 403 738 403 731 403 733 b 404 914 401 807 401 844 b 403 979 404 936 407 958 b 356 1018 399 999 375 1015 b 78 1017 296 1029 128 1047 b 54 968 61 1007 57 985 b 53 546 40 828 47 686 b 49 150 60 407 49 289 b 58 15 49 106 47 58 b 82 -21 61 1 69 -14 b 244 -32 110 -35 214 -33 z "},"i":{"ha":517,"x_min":null,"x_max":null,"o":"m 372 799 b 488 900 421 815 464 854 b 501 979 499 924 507 953 b 339 1114 488 1042 403 1108 b 156 1054 275 1121 199 1101 b 115 976 144 1042 118 993 b 135 851 106 936 110 886 b 221 796 154 824 188 806 b 372 799 269 782 325 782 z m 390 -14 b 410 8 399 -8 406 -1 b 417 106 424 38 418 74 b 436 494 411 236 422 365 b 444 621 440 538 440 579 b 382 726 454 703 449 725 b 97 721 311 729 168 729 b 35 707 86 719 44 713 b 19 675 25 700 21 688 b 19 535 14 628 14 581 b 35 492 21 519 24 501 b 71 486 44 483 60 483 b 118 504 88 492 103 499 b 114 442 119 483 117 463 b 97 238 108 374 103 306 b 92 36 92 171 86 104 b 106 -6 93 22 97 7 b 221 -32 122 -32 190 -32 b 390 -14 253 -33 363 -32 z "},"j":{"ha":679,"x_min":null,"x_max":null,"o":"m 519 797 b 615 883 560 813 597 844 b 628 949 626 903 633 928 b 492 1064 615 1003 546 1058 b 338 1013 438 1068 374 1053 b 303 949 328 1003 307 961 b 319 843 296 914 299 871 b 392 796 338 819 364 804 b 519 797 433 783 479 783 z m 289 -278 b 507 -179 368 -268 450 -233 b 615 7 560 -129 597 -62 b 639 151 628 54 636 103 b 632 526 646 276 644 401 b 618 621 628 557 624 589 b 583 685 614 643 604 671 b 558 696 576 689 567 692 b 397 708 531 713 431 713 b 338 704 376 707 357 704 b 269 703 328 704 279 706 b 243 674 254 699 246 690 b 254 533 238 646 240 560 b 286 514 260 524 274 515 b 346 515 306 510 326 515 b 350 488 349 506 349 497 b 336 279 351 418 351 347 b 307 207 331 254 324 226 b 239 174 292 188 264 178 b 121 165 200 167 160 169 b 69 142 101 163 81 156 b 42 44 57 126 44 63 b 28 -217 31 -12 -7 -169 b 81 -250 40 -233 63 -240 b 156 -272 104 -260 131 -267 b 289 -278 199 -281 244 -283 z "},"k":{"ha":879,"x_min":null,"x_max":null,"o":"m 188 -33 b 338 -17 214 -32 314 -29 b 364 15 350 -10 360 0 b 368 115 374 47 368 82 b 371 264 367 165 368 215 b 456 328 394 278 438 313 b 560 10 506 231 525 113 b 582 -22 564 -3 569 -17 b 649 -18 593 -26 638 -18 b 836 -11 711 -12 775 -24 b 864 14 849 -8 861 1 b 850 96 868 29 854 81 b 729 417 818 206 782 315 b 679 499 714 444 699 474 b 681 500 681 499 681 500 b 835 636 717 524 822 594 b 832 675 839 649 838 663 b 715 779 815 721 764 782 b 674 764 700 778 686 772 b 557 668 631 739 594 703 b 428 539 513 626 468 585 b 385 489 414 522 399 506 b 390 564 386 514 388 539 b 407 754 394 626 400 690 b 431 906 414 804 424 854 b 435 968 433 925 438 947 b 419 1007 432 982 428 996 b 363 1032 406 1022 383 1029 b 251 1040 326 1039 289 1039 b 144 1040 217 1040 181 1043 b 94 1028 128 1039 110 1036 b 47 861 54 1007 50 907 b 39 614 42 779 38 697 b 56 365 40 531 46 447 b 56 361 56 364 56 363 b 64 172 57 297 60 235 b 104 -10 67 129 71 17 b 188 -33 126 -28 158 -33 z "},"l":{"ha":457,"x_min":null,"x_max":null,"o":"m 188 -28 b 338 -12 214 -28 314 -24 b 364 19 350 -6 360 6 b 368 121 374 53 368 88 b 390 568 365 269 378 419 b 407 758 394 632 400 696 b 431 910 414 810 424 860 b 435 972 433 931 438 951 b 419 1013 432 986 428 1001 b 363 1038 406 1026 383 1035 b 251 1044 326 1043 289 1044 b 144 1046 217 1046 181 1049 b 94 1033 128 1044 110 1042 b 47 867 54 1011 50 913 b 39 619 42 785 38 701 b 56 369 40 536 46 453 b 56 365 56 368 56 367 b 64 176 57 303 60 240 b 104 -6 67 135 71 22 b 188 -28 126 -24 158 -29 z "},"m":{"ha":1332,"x_min":null,"x_max":null,"o":"m 236 -18 b 354 -8 275 -17 315 -15 b 411 43 383 -3 415 15 b 399 169 404 85 401 128 b 399 457 393 246 393 381 b 510 476 415 619 514 593 b 504 222 507 411 508 288 b 511 146 503 204 499 158 b 550 131 521 136 536 132 b 760 126 624 122 686 129 b 840 131 775 126 826 125 b 864 158 851 136 860 147 b 864 226 871 181 867 204 b 864 358 858 271 863 314 b 869 493 865 403 867 449 b 978 508 879 651 978 660 b 976 90 978 369 982 243 b 972 25 976 68 972 47 b 1054 -6 971 -7 1021 -3 b 1289 38 1125 -11 1293 -24 b 1300 443 1303 164 1306 315 b 1065 879 1293 613 1253 826 b 939 868 1025 890 978 883 b 789 778 883 849 828 819 b 763 750 781 768 771 760 b 386 779 676 899 493 901 b 390 843 388 800 389 822 b 385 897 392 861 394 882 b 344 919 376 910 360 917 b 113 908 267 935 189 921 b 76 894 100 906 85 903 b 68 864 69 886 68 874 b 38 164 49 631 38 397 b 51 14 38 135 36 39 b 82 -6 58 4 71 -1 b 128 -14 97 -10 113 -12 b 236 -18 164 -18 200 -19 z "},"n":{"ha":986,"x_min":null,"x_max":null,"o":"m 322 -18 b 374 1 340 -18 361 -11 b 382 71 383 14 383 56 b 382 408 374 197 385 282 b 597 369 382 713 633 740 b 589 208 592 315 594 263 b 581 68 585 168 581 110 b 590 19 582 51 583 33 b 611 -6 594 10 603 0 b 868 -15 644 -25 829 -17 b 922 1 886 -14 910 -12 b 933 32 929 10 932 21 b 938 179 935 75 935 136 b 958 478 944 279 961 378 b 942 629 956 528 951 579 b 379 756 889 882 636 996 b 388 850 383 788 385 818 b 379 900 389 867 389 886 b 261 922 363 924 292 922 b 138 917 219 924 178 929 b 99 882 121 911 107 899 b 81 824 89 864 83 843 b 36 322 50 658 39 489 b 47 68 33 238 33 151 b 74 3 51 44 57 18 b 140 -19 92 -12 118 -18 b 322 -18 201 -22 261 -19 z "},"o":{"ha":971,"x_min":null,"x_max":null,"o":"m 885 218 b 885 763 979 411 972 613 b 53 682 726 1031 171 1018 b 224 57 -24 468 22 161 b 885 218 460 -65 767 -22 z m 389 349 b 353 622 322 408 324 538 b 607 681 393 738 536 781 b 608 392 660 607 651 471 b 389 349 565 313 454 290 z "},"p":{"ha":942,"x_min":null,"x_max":null,"o":"m 350 -171 b 397 -131 369 -167 393 -150 b 399 -64 401 -108 399 -86 b 394 153 396 8 394 81 b 394 163 394 156 394 158 b 454 158 414 157 435 158 b 617 163 508 157 563 153 b 789 226 678 172 738 194 b 881 315 826 249 861 278 b 922 460 906 360 915 410 b 894 711 932 544 929 635 b 783 836 872 763 832 808 b 624 875 736 863 679 872 b 417 851 554 881 482 875 b 369 831 401 844 386 838 b 367 890 371 856 369 881 b 346 918 364 901 356 911 b 243 935 329 928 263 935 b 81 924 213 936 107 938 b 56 886 67 917 60 901 b 47 747 44 842 47 793 b 47 318 47 604 54 461 b 49 -118 42 174 35 26 b 72 -168 51 -136 56 -158 b 350 -171 122 -201 290 -182 z m 426 425 b 407 435 419 428 410 429 b 396 482 403 443 396 474 b 396 632 396 554 389 561 b 413 676 397 649 401 665 b 458 701 425 689 442 696 b 593 681 497 715 567 714 b 606 653 599 672 603 663 b 500 422 640 549 644 435 b 426 425 476 421 450 419 z "},"q":{"ha":958,"x_min":null,"x_max":null,"o":"m 783 -175 b 863 -167 810 -174 836 -172 b 903 -147 876 -162 892 -158 b 924 -104 915 -136 921 -119 b 922 4 929 -68 924 -32 b 903 606 908 204 894 406 b 915 861 907 690 918 776 b 903 915 914 879 913 899 b 768 949 885 947 804 947 b 593 931 729 951 622 956 b 563 889 578 919 568 906 b 515 901 549 894 525 900 b 365 911 467 910 415 917 b 254 893 328 907 290 901 b 85 799 190 878 129 844 b 18 547 24 735 24 633 b 53 342 13 478 25 406 b 164 226 75 293 115 250 b 315 201 208 203 264 200 b 574 242 403 201 489 224 b 575 242 575 242 575 242 b 549 -68 564 139 546 36 b 556 -112 549 -83 551 -99 b 588 -157 561 -131 574 -146 b 643 -175 604 -168 624 -174 b 783 -175 689 -181 736 -176 z m 417 529 b 411 593 408 549 413 572 b 556 650 399 739 556 700 b 549 500 556 638 560 504 b 417 529 501 482 436 483 z "},"r":{"ha":836,"x_min":null,"x_max":null,"o":"m 315 -35 b 421 4 343 -33 407 -19 b 426 53 431 18 429 38 b 403 301 414 136 408 218 b 400 346 403 317 401 332 b 422 454 404 383 408 421 b 454 490 428 469 439 483 b 511 501 471 499 492 501 b 679 474 568 503 626 493 b 726 460 694 468 710 463 b 767 485 746 457 760 467 b 778 540 774 501 775 521 b 814 769 789 617 800 693 b 822 826 817 789 821 807 b 810 863 824 839 819 854 b 606 899 775 893 651 901 b 493 863 567 896 528 882 b 401 792 460 844 428 821 b 399 854 400 813 400 833 b 378 906 397 872 392 894 b 236 925 356 924 264 924 b 85 893 194 926 108 928 b 72 839 75 878 75 858 b 46 510 58 729 53 619 b 42 117 38 379 31 247 b 53 3 44 78 49 40 b 76 -26 56 -15 65 -24 b 104 -36 85 -31 94 -35 b 315 -35 174 -47 246 -40 z "},"s":{"ha":857,"x_min":null,"x_max":null,"o":"m 593 -4 b 708 32 633 3 674 14 b 806 139 754 56 788 97 b 826 375 839 213 842 297 b 658 501 808 463 754 483 b 438 517 586 515 511 514 b 381 524 426 517 389 518 b 418 633 338 549 381 629 b 704 624 514 640 611 607 b 758 651 725 628 746 638 b 786 722 776 671 783 697 b 794 815 790 753 792 783 b 794 892 796 840 797 867 b 778 922 793 903 788 915 b 693 936 764 932 711 936 b 375 947 586 942 481 958 b 233 921 326 942 279 933 b 133 875 197 911 161 897 b 43 769 94 846 61 810 b 33 551 13 701 29 625 b 239 401 40 446 83 401 b 432 389 278 401 401 408 b 393 275 464 367 486 282 b 249 275 343 271 299 275 b 146 278 215 274 179 279 b 94 269 128 278 111 275 b 49 200 71 260 51 222 b 69 29 44 165 47 60 b 113 -1 79 15 94 6 b 200 -19 139 -12 169 -17 b 593 -4 331 -32 465 -29 z "},"t":{"ha":869,"x_min":null,"x_max":null,"o":"m 708 -25 b 806 8 742 -19 778 -11 b 843 61 822 21 836 42 b 850 189 856 103 851 146 b 808 397 849 239 849 365 b 764 407 797 407 779 408 b 669 397 732 404 701 399 b 474 421 604 393 535 394 b 428 456 456 428 439 440 b 410 508 417 471 411 490 b 410 572 408 529 408 550 b 633 571 506 572 594 572 b 721 568 663 569 692 567 b 771 585 739 568 761 572 b 782 613 778 593 781 603 b 779 756 789 640 793 729 b 690 769 768 776 717 771 b 425 774 663 769 533 772 b 429 906 428 818 429 861 b 407 986 428 933 424 964 b 347 1015 393 1003 369 1013 b 185 1006 313 1022 214 1025 b 149 794 140 976 154 846 b 147 776 149 789 147 782 b 53 776 115 778 85 779 b 17 742 31 774 18 761 b 17 624 15 704 11 660 b 25 597 18 614 21 606 b 44 582 29 592 36 586 b 78 576 54 578 67 576 b 133 574 92 575 111 574 b 132 529 133 558 132 544 b 154 142 126 400 121 267 b 192 60 161 113 174 83 b 256 8 210 38 231 21 b 464 -37 319 -24 393 -36 b 708 -25 546 -40 628 -37 z "},"u":{"ha":947,"x_min":null,"x_max":null,"o":"m 663 -12 b 763 31 697 -3 733 10 b 874 178 813 67 851 121 b 915 379 900 242 911 311 b 908 633 921 464 917 550 b 886 794 903 688 897 742 b 863 878 881 822 875 851 b 818 918 853 896 838 913 b 610 911 779 928 647 925 b 574 881 594 906 581 894 b 561 800 561 857 560 828 b 578 506 563 728 572 579 b 576 426 579 479 581 453 b 424 347 567 358 490 335 b 375 382 403 351 386 364 b 363 429 368 397 364 413 b 386 839 349 540 379 728 b 381 878 388 851 386 865 b 361 897 378 886 369 893 b 196 913 333 913 226 914 b 110 896 167 913 136 910 b 74 850 93 886 78 868 b 50 667 61 789 54 728 b 43 594 49 643 44 619 b 32 406 38 532 33 468 b 43 210 29 340 31 274 b 90 93 53 168 67 126 b 204 3 118 53 160 21 b 440 -33 279 -26 361 -33 b 663 -12 515 -33 590 -32 z "},"v":{"ha":981,"x_min":null,"x_max":null,"o":"m 547 -22 b 624 -8 572 -22 601 -21 b 699 88 653 8 688 57 b 957 833 781 310 886 608 b 883 935 976 894 971 915 b 788 943 853 942 819 943 b 739 924 769 944 750 938 b 704 844 721 901 713 872 b 626 603 688 797 642 650 b 435 626 571 422 494 360 b 371 881 418 703 393 806 b 292 944 354 933 347 947 b 171 932 263 944 199 935 b 35 906 144 931 56 919 b 15 872 22 897 17 886 b 24 804 11 849 18 826 b 104 549 44 718 76 633 b 185 322 129 474 157 397 b 324 26 224 221 265 119 b 356 -7 332 14 342 0 b 393 -19 367 -14 381 -17 b 547 -22 444 -25 496 -24 z "},"w":{"ha":1371,"x_min":null,"x_max":null,"o":"m 389 1 b 699 172 567 10 622 88 b 1333 374 994 -167 1304 47 b 1340 738 1338 494 1342 617 b 1326 892 1340 767 1343 867 b 1294 913 1319 901 1307 908 b 1247 922 1279 917 1264 921 b 1135 925 1210 925 1172 926 b 1013 915 1094 924 1053 924 b 954 863 982 910 950 892 b 967 731 961 819 964 775 b 968 475 974 651 974 554 b 854 456 950 307 849 335 b 857 676 856 524 854 608 b 851 756 858 694 864 743 b 810 772 842 767 825 771 b 593 776 735 779 668 774 b 510 772 578 776 524 778 b 485 743 499 767 489 754 b 485 672 479 721 482 696 b 485 536 490 626 486 582 b 481 460 483 489 483 507 b 367 444 471 296 367 288 b 368 814 367 589 363 656 b 374 881 369 836 372 858 b 288 913 375 914 322 910 b 44 868 214 918 40 932 b 33 449 31 738 28 581 b 389 1 42 242 118 -12 z "},"x":{"ha":979,"x_min":null,"x_max":null,"o":"m 378 3 b 413 50 392 17 403 32 b 494 190 438 96 465 143 b 588 56 526 146 557 100 b 622 10 599 40 608 24 b 783 0 647 -14 740 -6 b 922 4 810 3 896 0 b 939 82 974 15 979 25 b 675 457 860 193 769 325 b 951 808 764 578 858 696 b 944 854 971 832 971 843 b 929 860 943 856 931 858 b 678 935 860 886 750 922 b 650 931 668 936 658 935 b 594 885 628 922 611 901 b 468 729 551 838 508 785 b 344 874 426 781 386 829 b 289 921 328 892 311 911 b 261 924 281 924 271 925 b 51 860 189 911 119 886 b 35 854 49 858 38 856 b 28 808 8 843 8 832 b 292 471 118 700 206 586 b 40 82 206 333 122 196 b 58 4 0 25 6 15 b 196 0 83 0 169 3 b 378 3 240 -6 353 -21 z "},"y":{"ha":919,"x_min":null,"x_max":null,"o":"m 467 -232 b 624 -186 521 -228 575 -210 b 724 -128 660 -171 694 -153 b 835 44 776 -83 819 -22 b 876 636 874 207 885 439 b 878 860 883 703 882 794 b 869 900 876 874 876 889 b 836 924 863 913 850 921 b 765 928 813 929 789 926 b 649 926 726 928 688 933 b 610 908 635 924 619 919 b 597 867 600 897 597 881 b 597 653 597 804 604 728 b 469 642 581 499 465 476 b 471 835 471 697 472 778 b 458 890 471 854 468 874 b 426 913 453 901 439 910 b 347 919 401 919 374 917 b 63 901 283 924 110 947 b 38 835 44 886 39 858 b 38 636 32 776 32 694 b 38 636 38 636 38 636 b 38 618 38 631 38 624 b 92 403 39 544 50 465 b 224 304 122 358 169 319 b 349 290 264 292 307 286 b 482 319 394 294 439 307 b 571 336 500 325 554 343 b 586 301 581 332 585 313 b 533 179 590 257 571 211 b 439 140 508 158 474 146 b 283 142 389 131 335 132 b 129 185 239 161 158 182 b 81 179 113 186 94 186 b 51 139 65 171 56 154 b 26 -12 36 90 32 38 b 22 -61 25 -29 24 -46 b 21 -75 22 -67 22 -71 b 28 -118 19 -90 21 -106 b 67 -153 36 -133 51 -144 b 176 -196 101 -171 139 -183 b 335 -232 228 -214 281 -229 b 467 -232 378 -235 422 -235 z "},"z":{"ha":801,"x_min":null,"x_max":null,"o":"m 733 -7 b 757 15 744 -3 753 6 b 763 188 771 44 765 156 b 750 263 761 213 757 238 b 725 300 746 276 738 292 b 678 317 711 310 694 315 b 585 319 647 321 615 321 b 350 304 507 317 429 311 b 443 392 381 333 411 363 b 482 374 456 386 468 379 b 529 357 497 367 513 358 b 556 365 539 356 549 358 b 582 404 568 375 575 390 b 590 432 586 413 592 422 b 540 478 589 449 563 465 b 544 482 542 479 543 481 b 724 610 592 524 676 567 b 763 663 740 625 754 643 b 775 740 772 688 774 714 b 776 814 776 765 778 789 b 767 867 775 832 774 850 b 738 901 761 881 750 893 b 660 926 714 915 686 922 b 490 929 613 936 538 928 b 97 915 360 935 226 936 b 58 903 85 913 69 911 b 44 885 53 899 47 892 b 44 710 31 854 39 743 b 57 672 47 697 49 683 b 83 650 63 663 72 649 b 517 692 226 661 369 686 b 361 561 460 640 415 603 b 347 568 356 564 350 567 b 258 590 331 574 276 594 b 210 542 244 588 218 554 b 200 493 201 529 190 506 b 242 471 206 486 224 478 b 161 410 214 450 188 429 b 65 340 129 386 96 364 b 42 315 57 332 47 325 b 33 201 32 297 33 221 b 35 28 29 143 15 83 b 64 -6 39 14 50 0 b 163 -7 94 -18 129 -4 b 343 -10 222 -10 283 -7 b 603 -19 431 -12 517 -19 b 733 -7 626 -19 713 -17 z "},"~":{"ha":814,"x_min":null,"x_max":null,"o":"m 185 301 b 306 401 213 307 283 383 b 340 424 313 407 332 424 b 349 418 342 424 347 419 b 447 332 385 392 415 360 b 513 301 465 317 489 304 b 604 329 544 299 579 310 b 692 413 636 353 664 382 b 786 544 729 451 765 494 b 793 569 790 551 793 561 b 775 597 792 581 783 590 b 703 656 751 617 726 636 b 644 694 692 664 658 693 b 613 682 633 696 621 690 b 506 576 576 647 547 606 b 478 565 497 571 488 565 b 358 663 444 565 382 639 b 321 688 347 672 335 682 b 119 596 261 711 164 643 b 43 499 90 567 67 533 b 22 453 36 488 17 464 b 24 447 22 450 24 449 b 63 393 28 425 46 408 b 151 308 93 365 119 335 b 185 301 160 301 174 299 z "}," ":{"ha":347,"x_min":null,"x_max":null,"o":""},"¢":{"ha":808,"x_min":null,"x_max":null,"o":"m 482 -14 b 507 1 492 -12 501 -7 b 510 69 514 13 511 56 b 508 131 510 90 508 111 b 761 218 603 140 731 160 b 775 293 772 242 775 268 b 765 411 775 333 772 372 b 735 464 761 431 753 453 b 669 467 717 475 692 471 b 515 450 618 460 567 454 b 507 450 513 450 510 450 b 522 667 510 522 515 594 b 583 660 546 664 567 663 b 654 651 607 657 631 653 b 690 656 667 650 679 651 b 717 682 703 660 713 671 b 728 725 722 696 726 710 b 729 871 733 756 749 844 b 657 901 714 890 683 897 b 590 908 635 906 613 907 b 556 911 579 910 568 910 b 557 915 557 913 557 914 b 567 1011 560 935 576 993 b 524 1031 560 1025 539 1029 b 415 1028 504 1032 433 1036 b 394 1007 406 1025 399 1017 b 386 910 388 993 386 940 b 204 872 324 908 258 900 b 153 842 186 864 168 854 b 43 660 92 794 53 731 b 36 410 32 576 31 493 b 122 199 42 335 65 253 b 233 140 151 171 193 153 b 340 124 268 131 304 125 b 340 119 340 122 340 121 b 340 4 339 97 329 24 b 369 -11 346 -6 360 -10 b 482 -14 407 -17 444 -18 z m 317 478 b 296 579 293 504 290 544 b 322 639 299 600 304 625 b 382 661 335 650 356 657 b 379 626 381 650 381 638 b 369 454 375 568 372 511 b 317 478 349 457 329 464 z "},"£":{"ha":865,"x_min":null,"x_max":null,"o":"m 776 -17 b 806 -10 786 -15 796 -14 b 825 13 814 -6 821 3 b 833 56 831 25 832 40 b 836 188 836 100 835 143 b 835 274 836 203 840 260 b 817 289 831 282 825 286 b 765 285 808 290 774 286 b 601 274 711 279 657 272 b 525 292 575 275 549 279 b 428 457 483 313 449 389 b 500 457 458 458 485 457 b 568 456 522 457 544 456 b 606 467 581 457 597 458 b 614 483 610 472 613 478 b 611 572 618 501 621 557 b 543 582 603 586 564 582 b 404 582 526 581 468 582 b 410 651 403 606 404 629 b 468 742 419 686 439 719 b 564 774 494 761 531 772 b 679 768 603 776 642 772 b 725 767 694 767 710 763 b 763 792 740 769 754 778 b 772 819 767 800 769 810 b 786 935 779 857 781 896 b 789 1025 788 951 796 1010 b 749 1047 782 1039 764 1044 b 644 1058 714 1053 679 1054 b 504 1067 597 1064 550 1069 b 357 1029 453 1064 403 1050 b 153 786 261 983 183 888 b 132 583 133 721 126 651 b 56 583 107 585 81 586 b 28 561 39 581 29 574 b 29 488 28 539 25 510 b 36 472 29 482 32 476 b 50 463 39 468 44 464 b 76 458 58 460 67 460 b 154 457 93 457 121 457 b 197 317 168 410 183 364 b 204 269 199 307 207 278 b 190 264 203 265 194 265 b 88 251 157 257 122 257 b 54 221 71 249 54 236 b 58 111 53 185 57 147 b 65 19 60 96 61 33 b 85 -4 69 10 76 1 b 119 -15 94 -11 108 -14 b 219 -14 153 -18 186 -15 b 515 1 318 -8 417 3 b 776 -17 603 1 689 -21 z "},"¤":{"ha":856,"x_min":null,"x_max":null,"o":"m 160 79 b 257 203 194 88 236 163 b 594 200 368 160 494 158 b 635 138 608 179 622 158 b 665 107 642 125 651 113 b 699 106 675 103 689 103 b 790 175 722 114 778 154 b 790 208 796 185 796 199 b 724 300 771 242 749 271 b 740 324 731 308 735 315 b 740 696 813 456 808 593 b 736 701 739 697 738 700 b 760 740 743 714 750 728 b 818 811 778 765 804 785 b 818 849 824 824 824 838 b 715 921 803 875 744 915 b 682 913 704 922 692 919 b 651 882 669 906 660 893 b 592 799 632 854 613 826 b 300 804 503 829 394 832 b 261 872 288 828 275 850 b 222 915 251 889 239 906 b 104 882 188 938 133 911 b 86 850 96 874 88 863 b 161 733 82 819 133 765 b 94 640 132 708 108 676 b 124 303 51 536 58 397 b 35 197 101 281 44 219 b 39 153 29 185 32 165 b 92 104 53 133 72 118 b 160 79 111 90 136 74 z m 378 433 b 365 608 360 451 343 550 b 504 631 396 688 479 668 b 518 458 539 576 525 482 b 378 433 499 399 425 390 z "},"¥":{"ha":929,"x_min":null,"x_max":null,"o":"m 496 -43 b 575 -22 522 -42 551 -36 b 600 8 586 -15 594 -3 b 614 88 613 33 613 61 b 610 213 615 129 613 171 b 676 211 639 213 661 213 b 757 211 703 211 731 210 b 801 221 772 211 793 214 b 811 238 807 226 810 232 b 808 325 818 254 821 310 b 728 333 799 338 751 335 b 604 335 711 333 663 333 b 604 372 604 347 604 360 b 674 372 633 372 657 372 b 753 371 700 372 726 371 b 799 382 769 371 789 374 b 808 399 804 386 807 393 b 806 486 814 415 818 469 b 724 494 794 499 749 494 b 601 494 708 494 660 494 b 601 515 601 501 601 508 b 718 569 643 524 685 542 b 815 696 760 604 789 650 b 901 896 851 760 881 826 b 889 1032 913 936 925 1008 b 796 1054 863 1050 828 1051 b 633 1058 742 1058 688 1058 b 582 1040 615 1058 594 1054 b 568 1017 575 1033 571 1025 b 500 847 544 960 529 900 b 449 788 490 832 467 792 b 432 800 443 785 435 794 b 400 868 417 819 408 844 b 364 999 385 911 376 956 b 347 1032 360 1011 356 1024 b 275 1056 331 1051 300 1056 b 36 1024 226 1057 76 1051 b 15 986 25 1015 19 1000 b 61 832 7 954 47 863 b 94 768 71 810 82 789 b 96 767 96 767 94 768 b 181 601 115 707 140 649 b 251 547 199 578 224 560 b 319 524 274 538 296 529 b 315 496 318 515 317 506 b 263 496 299 496 281 496 b 143 496 224 496 183 499 b 111 474 124 494 111 486 b 111 403 110 451 106 425 b 119 386 113 397 114 392 b 136 378 124 382 129 379 b 168 374 146 375 157 374 b 301 372 193 372 243 372 b 299 336 300 360 299 347 b 267 335 288 335 276 335 b 147 335 226 335 186 339 b 114 314 126 333 114 325 b 114 242 113 292 110 264 b 122 226 115 236 118 231 b 140 217 126 222 133 219 b 171 213 150 214 160 214 b 286 211 194 213 236 211 b 275 67 282 163 278 115 b 288 -3 275 43 274 17 b 496 -43 318 -51 439 -49 z "},"­":{"ha":0,"x_min":null,"x_max":null,"o":""},"±":{"ha":883,"x_min":null,"x_max":null,"o":"m 553 361 b 574 488 582 376 575 449 b 572 557 574 510 572 533 b 600 557 582 557 592 557 b 746 554 649 556 697 553 b 829 578 776 554 813 561 b 846 614 839 589 843 601 b 840 811 857 653 864 776 b 693 831 822 840 738 832 b 572 828 653 829 613 829 b 574 1006 574 888 581 947 b 526 1057 571 1038 553 1057 b 365 1058 476 1060 414 1065 b 329 1046 353 1056 340 1053 b 308 1018 321 1039 313 1029 b 300 969 303 1003 301 986 b 296 825 296 922 294 874 b 90 825 228 826 158 832 b 31 778 53 821 31 804 b 31 615 29 728 22 665 b 46 581 33 603 38 592 b 78 560 53 572 65 564 b 133 551 96 554 115 553 b 300 550 189 547 244 547 b 296 443 297 514 296 479 b 317 365 297 418 299 379 b 353 350 326 357 340 353 b 553 361 390 340 517 342 z m 575 -8 b 694 -11 614 -10 654 -12 b 761 14 718 -10 749 -4 b 776 50 769 24 774 38 b 771 247 785 89 790 211 b 650 267 757 275 688 268 b 457 264 586 264 522 264 b 335 261 417 264 376 261 b 157 261 275 261 215 268 b 107 213 126 257 108 240 b 108 51 106 163 100 101 b 121 15 110 39 114 26 b 146 -4 126 7 136 0 b 192 -12 161 -10 176 -12 b 575 -8 319 -24 447 -3 z "},"×":{"ha":783,"x_min":null,"x_max":null,"o":"m 271 214 b 401 368 317 263 353 321 b 422 393 408 375 417 383 b 557 239 468 343 510 289 b 614 224 571 224 592 218 b 707 282 649 232 678 260 b 756 342 726 297 750 317 b 644 504 768 390 681 468 b 588 571 625 526 607 550 b 703 688 625 611 664 649 b 724 726 714 697 724 713 b 696 779 724 747 708 764 b 582 872 664 817 626 853 b 544 875 571 878 556 879 b 493 838 525 867 508 851 b 397 719 457 803 426 761 b 392 725 394 721 393 722 b 253 853 346 768 304 817 b 203 874 238 863 221 872 b 157 854 186 875 171 864 b 51 742 115 824 75 786 b 29 678 42 721 29 700 b 50 640 29 664 39 650 b 106 604 67 626 86 615 b 226 525 146 578 185 550 b 128 439 190 500 158 469 b 51 350 100 411 69 385 b 115 254 31 313 79 276 b 236 193 138 239 208 192 b 271 214 249 194 261 203 z "},"÷":{"ha":753,"x_min":null,"x_max":null,"o":"m 454 783 b 511 921 493 806 519 878 b 481 971 508 940 496 960 b 383 999 454 992 417 999 b 282 926 342 999 297 965 b 272 861 272 906 269 883 b 321 786 278 832 296 801 b 374 769 336 776 356 771 b 454 783 401 767 431 769 z m 513 472 b 638 469 554 471 596 469 b 708 490 663 471 693 475 b 724 522 717 500 721 511 b 718 690 732 554 738 660 b 592 707 703 715 629 708 b 390 704 525 704 457 706 b 263 703 347 704 304 703 b 75 703 200 703 138 708 b 24 661 43 699 25 685 b 25 522 22 618 17 565 b 38 493 26 513 31 501 b 65 475 44 485 54 479 b 113 468 79 471 97 469 b 513 472 246 458 379 476 z m 447 201 b 504 340 486 225 513 296 b 474 390 501 358 489 378 b 376 418 447 410 410 418 b 275 344 335 418 290 383 b 265 279 267 325 263 301 b 314 204 271 250 289 221 b 367 188 329 194 349 189 b 447 201 394 186 424 188 z "},"‘":{"ha":413,"x_min":null,"x_max":null,"o":"m 271 560 b 356 640 308 572 339 606 b 385 776 376 682 390 731 b 336 864 379 810 363 844 b 247 896 311 883 278 888 b 228 908 240 899 232 903 b 196 974 213 928 203 950 b 183 1001 193 983 190 994 b 161 1004 178 1007 167 1008 b 131 976 150 996 139 988 b 31 747 75 914 42 829 b 56 618 25 703 33 656 b 131 560 72 592 101 569 b 271 560 175 544 226 544 z "},"’":{"ha":413,"x_min":null,"x_max":null,"o":"m 251 551 b 282 579 263 560 272 568 b 382 808 338 640 371 726 b 356 936 388 851 379 900 b 281 996 340 964 311 986 b 142 996 238 1011 185 1010 b 56 915 104 982 72 950 b 28 779 36 872 21 825 b 76 690 32 746 50 711 b 165 658 101 672 135 668 b 185 647 172 657 181 653 b 217 582 200 628 210 604 b 229 554 219 572 222 561 b 251 551 235 549 246 547 z "},"“":{"ha":804,"x_min":null,"x_max":null,"o":"m 271 574 b 356 656 308 588 339 619 b 385 790 376 697 390 744 b 336 879 379 824 363 858 b 247 911 311 897 278 901 b 228 922 240 913 232 917 b 196 988 213 942 203 965 b 183 1015 193 997 190 1008 b 161 1018 178 1021 167 1022 b 131 990 150 1010 139 1001 b 31 761 75 929 42 843 b 56 633 25 718 33 669 b 131 574 72 606 101 583 b 271 574 175 558 226 560 z m 664 569 b 749 650 700 582 732 615 b 776 786 768 692 783 740 b 728 874 772 818 756 854 b 639 906 703 893 669 897 b 619 918 632 908 625 911 b 588 983 606 938 594 960 b 575 1011 585 993 583 1004 b 553 1013 569 1017 560 1018 b 522 986 543 1004 532 996 b 424 756 467 924 435 839 b 449 628 417 713 425 665 b 524 569 465 601 493 579 b 664 569 568 554 619 554 z "},"”":{"ha":804,"x_min":null,"x_max":null,"o":"m 251 565 b 282 593 263 574 272 582 b 382 822 338 656 371 740 b 356 951 388 867 379 914 b 281 1010 340 978 311 1000 b 142 1010 238 1025 185 1025 b 56 929 104 997 72 964 b 28 793 36 888 21 839 b 76 706 32 760 50 725 b 165 674 101 686 135 682 b 185 661 172 671 181 667 b 217 596 200 642 210 619 b 229 568 219 586 222 575 b 251 565 235 563 246 561 z m 643 561 b 674 588 654 569 665 578 b 774 818 729 650 763 735 b 749 946 779 861 771 908 b 674 1006 732 974 703 994 b 533 1004 629 1019 578 1019 b 449 924 496 992 465 960 b 419 789 429 882 414 835 b 468 700 425 756 442 721 b 557 668 493 681 526 678 b 576 656 564 667 572 663 b 608 590 592 638 601 614 b 621 563 611 581 614 571 b 643 561 626 558 638 556 z "},"€":{"ha":771,"x_min":null,"x_max":null,"o":"m 589 -24 b 679 -4 606 -21 665 -12 b 725 51 699 10 717 28 b 736 165 736 88 736 126 b 721 344 736 197 736 315 b 694 365 717 354 706 363 b 632 371 675 372 653 371 b 521 381 594 371 557 374 b 426 421 486 388 453 400 b 365 496 401 442 376 467 b 417 496 388 496 406 496 b 474 494 436 496 454 494 b 506 503 485 496 499 497 b 513 515 508 507 511 511 b 510 581 515 528 518 569 b 453 588 503 590 469 588 b 354 588 440 588 400 588 b 357 619 354 599 356 608 b 428 618 388 619 413 619 b 485 618 446 618 465 617 b 517 626 496 618 510 619 b 524 638 519 629 522 633 b 521 704 526 651 529 692 b 464 710 514 714 481 711 b 393 710 454 710 426 710 b 507 760 419 742 465 756 b 633 761 549 765 592 763 b 671 768 646 760 660 763 b 700 899 699 786 697 865 b 707 1001 703 932 706 967 b 700 1032 707 1011 707 1024 b 671 1046 693 1040 682 1044 b 558 1056 633 1051 596 1058 b 389 1025 501 1051 443 1044 b 269 969 347 1011 306 994 b 131 804 210 929 161 869 b 101 713 118 775 108 744 b 54 711 86 713 69 713 b 31 696 39 710 31 704 b 31 642 31 679 28 658 b 38 629 32 638 33 633 b 49 622 39 626 44 624 b 71 619 56 621 64 619 b 88 619 75 619 81 619 b 85 589 86 610 85 599 b 43 589 71 590 57 590 b 19 572 28 588 19 582 b 19 518 19 556 17 535 b 26 507 21 514 22 510 b 38 500 28 504 33 501 b 60 497 44 497 53 497 b 83 496 65 496 74 496 b 88 418 83 469 86 443 b 144 228 94 351 115 286 b 232 101 167 182 196 138 b 326 33 260 75 293 53 b 461 -17 368 10 414 -7 b 589 -24 503 -26 546 -26 z "},"™":{"ha":1210,"x_min":null,"x_max":null,"o":"m 267 461 b 314 467 282 463 299 463 b 339 478 322 469 331 472 b 353 503 347 483 351 492 b 354 572 357 525 356 549 b 347 865 349 669 343 768 b 361 863 353 864 358 864 b 439 861 386 860 413 860 b 496 860 450 861 488 856 b 507 875 501 863 506 869 b 517 949 513 900 514 925 b 522 1011 519 969 521 990 b 518 1040 522 1021 522 1032 b 504 1056 515 1047 510 1053 b 453 1068 489 1064 471 1065 b 290 1078 400 1075 344 1076 b 78 1072 219 1079 147 1081 b 38 1057 63 1069 47 1067 b 22 1022 28 1049 24 1035 b 25 900 18 982 18 940 b 39 863 28 888 29 872 b 65 856 46 856 56 854 b 125 864 86 857 106 861 b 183 871 144 867 164 868 b 183 871 183 871 183 871 b 175 615 181 785 176 700 b 176 522 175 583 174 553 b 186 488 178 511 179 499 b 206 469 190 481 197 474 b 267 461 224 460 246 461 z m 663 472 b 711 475 679 474 696 472 b 735 488 719 476 729 481 b 743 515 740 494 742 506 b 739 571 743 533 740 553 b 731 701 736 615 732 658 b 728 818 729 740 731 779 b 750 775 736 804 743 789 b 804 661 769 738 786 699 b 824 632 810 651 815 640 b 851 619 831 624 842 619 b 854 619 853 619 853 619 b 864 621 857 619 860 619 b 885 635 871 624 879 628 b 913 678 897 647 904 663 b 968 794 931 717 947 757 b 982 817 972 801 976 810 b 978 701 979 778 979 739 b 969 565 976 656 972 611 b 967 513 968 549 965 531 b 974 488 967 504 968 494 b 989 478 978 483 983 481 b 1047 472 1007 472 1028 474 b 1128 474 1074 469 1101 467 b 1161 500 1142 478 1156 488 b 1168 526 1165 508 1167 517 b 1172 597 1172 550 1172 574 b 1147 901 1169 699 1161 801 b 1121 1044 1140 950 1133 997 b 1074 1060 1117 1063 1090 1060 b 1029 1056 1058 1058 1043 1061 b 1010 1046 1022 1054 1015 1050 b 992 1024 1006 1043 994 1028 b 942 942 974 997 958 969 b 892 861 926 914 908 888 b 856 806 881 843 868 824 b 849 815 853 810 850 813 b 786 908 826 844 807 876 b 713 1031 761 949 740 992 b 685 1054 706 1040 697 1050 b 643 1060 671 1058 657 1060 b 589 1049 626 1060 596 1063 b 582 1022 585 1040 585 1031 b 538 626 556 892 544 760 b 563 482 536 589 531 504 b 600 471 574 475 588 472 b 663 472 621 468 642 471 z "},"|":{"ha":417,"x_min":null,"x_max":null,"o":"m 276 -142 b 314 -124 290 -139 306 -135 b 325 -81 324 -112 326 -96 b 322 -37 325 -65 324 -51 b 322 319 314 81 315 200 b 342 671 328 436 329 554 b 376 939 351 760 364 849 b 372 1018 381 965 382 994 b 347 1043 367 1029 357 1038 b 118 1050 308 1060 160 1054 b 86 1035 106 1050 93 1044 b 83 928 74 1017 82 950 b 89 751 86 869 88 810 b 89 749 89 749 89 750 b 51 147 79 547 64 347 b 43 -29 49 89 43 31 b 60 -117 43 -58 44 -92 b 108 -150 69 -135 89 -147 b 276 -142 164 -161 222 -154 z "},"\n":{"ha":0,"x_min":null,"x_max":null,"o":""}}}
